<svg width="18" height="18" viewBox="0 0 18 18" fill="none" xmlns="http://www.w3.org/2000/svg">
<path d="M14.7019 9.4761C14.2829 9.41235 13.9108 9.69953 13.8508 10.109C13.6999 11.1373 13.2253 12.0755 12.4782 12.8226C10.5768 14.724 7.48529 14.7225 5.58464 12.8226C3.68436 10.922 3.68436 7.82933 5.58464 5.92905C6.29946 5.2146 7.20186 4.74878 8.21181 4.5792C8.64614 4.49678 9.11309 4.48253 9.59759 4.53743C10.2628 4.614 10.882 4.83473 11.4471 5.1588L10.4707 5.32553C10.0627 5.3955 9.78801 5.78295 9.85836 6.19125C9.92061 6.55673 10.2378 6.81488 10.5967 6.81488C10.6384 6.81488 10.6809 6.81158 10.7241 6.80423L13.3417 6.3567C13.5373 6.32303 13.7123 6.21315 13.8274 6.05055C13.9423 5.88833 13.9878 5.68688 13.954 5.4906L13.5058 2.87333C13.4369 2.4654 13.0546 2.19218 12.64 2.26065C12.2321 2.33063 11.9574 2.71845 12.0277 3.12675L12.1457 3.81563C11.4198 3.40838 10.619 3.1449 9.76821 3.04695C9.13101 2.97443 8.51286 2.9946 7.94706 3.10298C6.64446 3.32123 5.46089 3.93173 4.52406 4.86848C2.03894 7.3536 2.03894 11.3973 4.52406 13.8831C5.76659 15.126 7.39919 15.7472 9.03141 15.7472C10.664 15.7472 12.2958 15.1261 13.5388 13.8831C14.5151 12.9068 15.1362 11.6771 15.3346 10.3272C15.3948 9.91703 15.1113 9.5361 14.7019 9.4761Z" fill="white"/>
</svg>
