<svg width="18" height="18" viewBox="0 0 18 18" fill="none" xmlns="http://www.w3.org/2000/svg">
<path d="M5.13082 8.71619L4.55585 8.81507C4.40936 8.8407 4.27752 8.72351 4.28484 8.57702C4.36541 6.93633 5.25534 5.36888 6.7825 4.48262C8.67955 3.3876 10.9978 3.67326 12.5689 5.03562C12.7227 5.16746 12.9497 5.16014 13.0926 5.01731L13.8946 4.21527C13.9715 4.13837 14.0118 4.03948 14.0081 3.92962C14.0045 3.81975 13.9605 3.72453 13.88 3.65129C11.7156 1.7286 8.47813 1.30744 5.83031 2.8346C3.68423 4.07244 2.45371 6.28811 2.3768 8.59533C2.37314 8.73816 2.24496 8.8407 2.1058 8.81507L1.57477 8.71985C1.23052 8.66125 0.988808 9.06044 1.20854 9.33877L3.05066 11.7009C3.20447 11.8987 3.50478 11.8987 3.65859 11.7009L5.50437 9.33511C5.71678 9.05678 5.47874 8.65759 5.13082 8.71619Z" fill="#6A6A6A"/>
<path d="M16.7915 8.66127L14.953 6.29911C14.7992 6.10135 14.4989 6.10135 14.3451 6.29911L12.4993 8.66493C12.2832 8.9396 12.5249 9.34245 12.8692 9.28385L13.4442 9.18497C13.5906 9.15933 13.7225 9.27652 13.7152 9.42301C13.6346 11.0637 12.7447 12.6312 11.2175 13.5174C9.32045 14.6124 7.00224 14.3268 5.43114 12.9644C5.27732 12.8326 5.05026 12.8399 4.90743 12.9827L4.10174 13.7884C4.02483 13.8653 3.98454 13.9642 3.98821 14.0741C3.99187 14.184 4.03581 14.2792 4.11638 14.3524C6.28078 16.2751 9.51822 16.6963 12.166 15.1691C14.3121 13.9313 15.5426 11.7156 15.6195 9.40837C15.6232 9.26554 15.7514 9.16299 15.8905 9.18863L16.4216 9.28385C16.7695 9.33878 17.0112 8.9396 16.7915 8.66127Z" fill="#6A6A6A"/>
</svg>
