<svg width="18" height="18" viewBox="0 0 18 18" fill="none" xmlns="http://www.w3.org/2000/svg">
<path d="M2.18689 5.27344L3.12096 16.5493C3.18789 17.3624 3.88054 18 4.6968 18H13.3032C14.1195 18 14.8121 17.3624 14.8791 16.5493L15.8131 5.27344H2.18689ZM6.36278 15.8906C6.08674 15.8906 5.8545 15.6759 5.83699 15.3962L5.30964 6.88841C5.29161 6.59746 5.51253 6.34718 5.80299 6.32914C6.10425 6.30802 6.34373 6.53154 6.36226 6.82249L6.8896 15.3303C6.90827 15.6316 6.66987 15.8906 6.36278 15.8906ZM9.52734 15.3633C9.52734 15.6548 9.29148 15.8906 9 15.8906C8.70851 15.8906 8.47265 15.6548 8.47265 15.3633V6.85547C8.47265 6.56399 8.70851 6.32812 9 6.32812C9.29148 6.32812 9.52734 6.56399 9.52734 6.85547V15.3633ZM12.6903 6.88845L12.163 15.3963C12.1457 15.6731 11.9149 15.9038 11.6037 15.8896C11.3133 15.8716 11.0924 15.6213 11.1104 15.3303L11.6377 6.82253C11.6558 6.53157 11.9107 6.3199 12.197 6.32918C12.4875 6.34721 12.7084 6.59749 12.6903 6.88845Z" fill="#6A6A6A"/>
<path d="M15.8555 2.10938H12.6914V1.58203C12.6914 0.709664 11.9817 0 11.1094 0H6.89062C6.01826 0 5.30859 0.709664 5.30859 1.58203V2.10938H2.14453C1.56203 2.10938 1.08984 2.58156 1.08984 3.16406C1.08984 3.7465 1.56203 4.21875 2.14453 4.21875C6.9949 4.21875 11.0053 4.21875 15.8555 4.21875C16.438 4.21875 16.9102 3.7465 16.9102 3.16406C16.9102 2.58156 16.438 2.10938 15.8555 2.10938ZM11.6367 2.10938H6.36328V1.58203C6.36328 1.29108 6.59967 1.05469 6.89062 1.05469H11.1094C11.4003 1.05469 11.6367 1.29108 11.6367 1.58203V2.10938Z" fill="#6A6A6A"/>
</svg>
