<svg width="18" height="18" viewBox="0 0 18 18" fill="none" xmlns="http://www.w3.org/2000/svg">
<path d="M13.1521 0.901978H4.84794C3.5469 0.901978 2.4885 1.96056 2.4885 3.2616V14.7384C2.4885 16.0394 3.5469 17.098 4.84794 17.098H10.0861C10.2771 17.098 10.4602 17.0222 10.5953 16.8872L15.3007 12.1819C15.4357 12.0469 15.5115 11.8636 15.5115 11.6726V3.2616C15.5115 1.96056 14.4531 0.901978 13.1521 0.901978ZM12.2587 9.72H9.72V12.2587C9.72 12.6563 9.39762 12.9787 9 12.9787C8.60238 12.9787 8.28 12.6563 8.28 12.2587V9.72H5.74128C5.34366 9.72 5.02128 9.39762 5.02128 9C5.02128 8.60238 5.34366 8.28 5.74128 8.28H8.28V5.74128C8.28 5.34366 8.60238 5.02128 9 5.02128C9.39762 5.02128 9.72 5.34366 9.72 5.74128V8.28H12.2587C12.6563 8.28 12.9787 8.60238 12.9787 9C12.9787 9.39762 12.6563 9.72 12.2587 9.72Z" fill="#6A6A6A"/>
</svg>
