<?xml version="1.0" encoding="UTF-8"?>
<svg xmlns="http://www.w3.org/2000/svg" width="108" height="50" viewBox="0 0 108 50" fill="none">
  <g clip-path="url(#clip0_431_2232)">
    <path d="M1.26724 34.4346L12.0197 24.8261C12.0064 24.5073 11.9953 24.1863 11.9953 23.843V0H0.0703125V27.9985C0.0703125 30.3646 0.418402 32.4074 1.11458 34.127C1.15883 34.234 1.21857 34.3299 1.26724 34.4346Z" fill="black"></path>
    <path d="M21.7354 32.4281C20.2111 32.4511 18.6881 32.3287 17.1867 32.0625H17.1623L7.69531 40.0592C8.58871 40.3963 9.50475 40.669 10.4365 40.8751C12.8687 41.4117 15.8186 41.6799 19.2863 41.6799H44.362V32.4281H21.7354Z" fill="black"></path>
    <path d="M107.066 13.7419C106.502 11.8003 105.615 9.9693 104.443 8.3268C103.329 6.78952 101.952 5.46462 100.376 4.41428C98.7352 3.32674 96.9577 2.46455 95.0906 1.85052C93.0555 1.18215 90.962 0.710378 88.8382 0.441564C86.5258 0.14041 84.1963 -0.00852928 81.8647 -0.00430724H60.4416L69.5414 9.06694H80.6478C83.4502 9.06694 85.8286 9.304 87.7829 9.77811C89.7372 10.2522 91.3169 10.9701 92.5219 11.9317C93.7199 12.8808 94.6303 14.1488 95.1503 15.5923C95.6961 17.0681 95.9689 18.807 95.9689 20.809C95.9689 22.8109 95.6961 24.5506 95.1503 26.0279C94.6226 27.4764 93.7104 28.7511 92.5131 29.713C91.3022 30.6939 89.7225 31.4222 87.7741 31.8978C85.8256 32.3734 83.4473 32.6104 80.639 32.6089H65.8156V18.0579L53.8906 5.48883V41.6802H81.9332C84.2649 41.6844 86.5944 41.5355 88.9068 41.2343C91.0278 40.9686 93.1186 40.4983 95.1503 39.8298C97.0077 39.2189 98.7733 38.3548 100.398 37.2616C101.96 36.1972 103.328 34.8699 104.443 33.3379C105.618 31.6977 106.504 29.8659 107.062 27.9228C107.685 25.8421 107.995 23.4708 107.994 20.809C108.031 18.4202 107.718 16.0389 107.066 13.7419Z" fill="black"></path>
    <path d="M1.29385 47.9398C1.28673 48.0975 1.30314 48.2553 1.34253 48.408C1.37416 48.5189 1.43721 48.6181 1.52395 48.6934C1.61953 48.7682 1.73203 48.818 1.85139 48.8383C2.01441 48.8656 2.17951 48.8782 2.34476 48.8762H4.80941V49.8816H2.0859C1.76206 49.8856 1.43871 49.855 1.12128 49.7902C0.890899 49.7459 0.671856 49.6549 0.477464 49.5227C0.314169 49.4066 0.18745 49.2456 0.112412 49.059C0.0321967 48.8455 -0.00612349 48.6184 -0.000422196 48.3902V45.3516H1.29385V47.9398Z" fill="black"></path>
    <path d="M11.3303 48.9921C11.1973 49.2094 11.0145 49.3914 10.7971 49.5227C10.523 49.6876 10.2241 49.8066 9.91214 49.8749C9.50429 49.9681 9.08692 50.0122 8.66875 50.0065C8.24913 50.0122 7.8303 49.9681 7.42094 49.8749C7.10893 49.8067 6.81002 49.6877 6.53597 49.5227C6.31394 49.3929 6.12644 49.2109 5.98949 48.9921C5.87404 48.7989 5.81286 48.5778 5.8125 48.3523V45.3516H7.09571V47.9131C7.09477 48.0587 7.11489 48.2036 7.15545 48.3434C7.19524 48.4799 7.27183 48.6026 7.37669 48.6978C7.51614 48.8117 7.67842 48.8939 7.85236 48.9386C8.11177 49.0051 8.37906 49.0351 8.64663 49.0278C8.91201 49.0351 9.17711 49.0051 9.43426 48.9386C9.60755 48.8939 9.76911 48.8118 9.90772 48.6978C10.0133 48.6032 10.09 48.4803 10.129 48.3434C10.1677 48.2033 10.187 48.0585 10.1865 47.9131V45.3516H11.5206V48.3523C11.5171 48.5792 11.4513 48.8007 11.3303 48.9921Z" fill="black"></path>
    <path d="M16.1482 47.5542L18.4248 49.8772H16.8761L15.3761 48.3523L13.8827 49.8772H12.334L14.6062 47.5542L12.4468 45.3516H13.9955L15.3739 46.7672L16.7589 45.3516H18.3076L16.1482 47.5542Z" fill="black"></path>
    <path d="M24.7573 48.9921C24.6226 49.2071 24.4391 49.3867 24.2219 49.516C23.9477 49.6808 23.6488 49.7997 23.3369 49.8682C22.5149 50.0436 21.6655 50.0436 20.8435 49.8682C20.5317 49.7992 20.2329 49.6803 19.9585 49.516C19.7419 49.3866 19.5591 49.207 19.4253 48.9921C19.3082 48.7995 19.2462 48.5781 19.2461 48.3523V45.3516H20.5382V47.9131C20.5368 48.0589 20.5577 48.204 20.6001 48.3434C20.639 48.4803 20.7158 48.6032 20.8213 48.6978C20.96 48.8118 21.1215 48.8939 21.2948 48.9386C21.5542 49.0051 21.8215 49.0351 22.0891 49.0278C22.3552 49.035 22.621 49.005 22.8789 48.9386C23.0522 48.8939 23.2138 48.8118 23.3524 48.6978C23.4582 48.6033 23.5349 48.4804 23.5736 48.3434C23.6142 48.2036 23.6343 48.0587 23.6334 47.9131V45.3516H24.9276V48.3523C24.9303 48.5773 24.8713 48.7987 24.7573 48.9921Z" fill="black"></path>
    <path d="M27.6979 49.8773H26.4014V45.3517H29.6492C29.9473 45.3461 30.2448 45.3798 30.5342 45.452C30.7499 45.5067 30.9518 45.6062 31.1271 45.744C31.2747 45.8607 31.3892 46.0145 31.459 46.1899C31.5302 46.3785 31.5655 46.5789 31.563 46.7807C31.5663 46.9519 31.5371 47.1222 31.4767 47.2823C31.4271 47.4174 31.352 47.5416 31.2554 47.6479C31.1578 47.7517 31.0443 47.839 30.9192 47.9065C30.79 47.9779 30.6544 48.0368 30.5143 48.0826L32.0851 49.8661H30.5696L29.1182 48.1986H27.7045L27.6979 49.8773ZM30.2554 46.7807C30.2577 46.7046 30.2449 46.6288 30.2178 46.5578C30.1927 46.4957 30.1485 46.4434 30.0917 46.4084C30.0163 46.3657 29.9338 46.337 29.8483 46.3237C29.723 46.3061 29.5966 46.2979 29.47 46.2991H27.7001V47.2667H29.47C29.5966 47.2685 29.7232 47.2595 29.8483 47.2399C29.9342 47.2293 30.017 47.2012 30.0917 47.1575C30.1485 47.1225 30.1927 47.0702 30.2178 47.0081C30.2457 46.9357 30.2585 46.8583 30.2554 46.7807Z" fill="black"></path>
    <path d="M35.7355 48.0292V49.8774H34.4434V48.0292L32.1182 45.354H33.5717L35.0939 47.1754L36.6094 45.354H38.0696L35.7355 48.0292Z" fill="black"></path>
    <path d="M47.5166 47.6099C47.5204 47.8713 47.4869 48.1318 47.417 48.3835C47.3554 48.5945 47.2589 48.7934 47.1316 48.9721C47.0102 49.1386 46.8604 49.282 46.6891 49.3956C46.5133 49.5164 46.321 49.6111 46.1183 49.6765C45.8981 49.7496 45.6714 49.8011 45.4413 49.8304C45.1904 49.8622 44.9376 49.8778 44.6847 49.8772H41.6426V45.3516H44.6803C44.9332 45.3509 45.1859 45.3666 45.4369 45.3984C45.6678 45.4269 45.8953 45.4784 46.1161 45.5522C46.3196 45.6183 46.5131 45.712 46.6914 45.8309C46.8626 45.9445 47.0125 46.0879 47.1338 46.2545C47.2603 46.4336 47.3567 46.6324 47.4192 46.843C47.4884 47.0926 47.5212 47.3509 47.5166 47.6099ZM46.2113 47.6099C46.2155 47.4174 46.1856 47.2256 46.1228 47.0437C46.0663 46.8871 45.9674 46.7497 45.8374 46.6468C45.6832 46.5364 45.5075 46.4604 45.3219 46.4239C45.0676 46.3677 44.8078 46.3416 44.5475 46.3459H42.9369V48.9029H44.5475C44.8077 48.9079 45.0675 48.8824 45.3219 48.8272C45.5087 48.786 45.6846 48.7046 45.8374 48.5886C45.9673 48.4829 46.066 48.3434 46.1228 48.1851C46.1865 48.0003 46.2165 47.8055 46.2113 47.6099Z" fill="black"></path>
    <path d="M48.6895 49.8772V45.3516H49.9837V49.8772H48.6895Z" fill="black"></path>
    <path d="M55.9145 46.6248C55.8238 46.5847 55.6933 46.5379 55.5539 46.4844C55.4145 46.4309 55.2353 46.3818 55.0473 46.335C54.8592 46.2882 54.6534 46.2481 54.4322 46.2146C54.2071 46.1831 53.9802 46.1675 53.753 46.1678C53.5649 46.1678 53.4078 46.1678 53.2751 46.1834C53.1638 46.1923 53.053 46.2072 52.9432 46.228C52.8677 46.2406 52.7936 46.2608 52.722 46.2882C52.6785 46.305 52.6381 46.3291 52.6025 46.3595C52.5809 46.3751 52.5635 46.396 52.5519 46.4201C52.5403 46.4443 52.5349 46.4709 52.5361 46.4977C52.5386 46.5329 52.5493 46.5671 52.5673 46.5973C52.5854 46.6275 52.6104 46.653 52.6401 46.6716C52.7285 46.7284 52.8247 46.772 52.9255 46.8009C53.0643 46.845 53.2054 46.8815 53.3481 46.9102L53.8592 47.0172C54.0406 47.0528 54.2264 47.093 54.4189 47.1353C54.6114 47.1777 54.7973 47.229 54.9765 47.2847C55.152 47.3394 55.3235 47.4064 55.4897 47.4853C55.6412 47.5553 55.7833 47.6444 55.9123 47.7506C56.0293 47.8465 56.1263 47.9647 56.1977 48.0984C56.2686 48.236 56.3043 48.3893 56.3017 48.5443C56.3072 48.738 56.2654 48.9302 56.18 49.1039C56.1005 49.2571 55.9896 49.3915 55.8548 49.4985C55.7116 49.6094 55.5517 49.6967 55.3813 49.7571C55.1978 49.8233 55.0091 49.874 54.8172 49.9087C54.6195 49.9429 54.42 49.966 54.2198 49.9778C54.0185 49.9778 53.826 49.9934 53.6468 49.9934C53.2019 49.9965 52.7576 49.9592 52.3193 49.8819C51.9558 49.8189 51.5978 49.7272 51.2485 49.6077V48.5265C51.594 48.7035 51.9606 48.8354 52.3392 48.9188C52.7699 49.0156 53.21 49.0635 53.6512 49.0615C53.8732 49.0638 54.095 49.0496 54.3149 49.0191C54.4544 49.0013 54.5911 48.9661 54.722 48.9144C54.8001 48.8872 54.8691 48.8385 54.9211 48.7739C54.9533 48.7323 54.9719 48.6817 54.9742 48.629C54.973 48.5914 54.9629 48.5546 54.9448 48.5217C54.9267 48.4887 54.9012 48.4606 54.8703 48.4395C54.7825 48.3774 54.6854 48.33 54.5826 48.2991C54.4441 48.2528 54.303 48.2148 54.1601 48.1854L53.649 48.0828C53.4698 48.0494 53.2839 48.0137 53.0915 47.9736C52.899 47.9334 52.7153 47.8866 52.5361 47.8331C52.3618 47.7822 52.1911 47.7197 52.0251 47.6459C51.8735 47.5807 51.7313 47.4952 51.6025 47.3917C51.4978 47.3012 51.4101 47.1925 51.3436 47.0707C51.2728 46.9331 51.2371 46.7798 51.2397 46.6248C51.2349 46.4457 51.2736 46.2682 51.3525 46.1076C51.4248 45.9629 51.5274 45.8359 51.6534 45.7353C51.7872 45.6301 51.9365 45.5466 52.0959 45.4878C52.2659 45.4224 52.4414 45.3724 52.6202 45.3385C52.8054 45.3044 52.9922 45.2806 53.18 45.2671C53.3688 45.2538 53.548 45.2471 53.7176 45.2471C53.9034 45.2471 54.0937 45.2471 54.2906 45.2738C54.4875 45.3006 54.6822 45.3162 54.8725 45.3474C55.0627 45.3786 55.2464 45.4165 55.4256 45.4566C55.6048 45.4968 55.7685 45.5436 55.9212 45.5882L55.9145 46.6248Z" fill="black"></path>
    <path d="M60.2242 46.3347V49.8772H58.93V46.3347H56.8945V45.3516H62.2619V46.3347H60.2242Z" fill="black"></path>
    <path d="M64.4146 49.8773H63.1182V45.3517H66.366C66.6641 45.346 66.9616 45.3797 67.251 45.452C67.4668 45.5062 67.6689 45.6057 67.8439 45.7441C67.9915 45.8607 68.106 46.0145 68.1758 46.1899C68.248 46.3782 68.2834 46.5789 68.2798 46.7807C68.2831 46.9519 68.2539 47.1222 68.1935 47.2823C68.1447 47.4179 68.0695 47.5422 67.9722 47.6479C67.8746 47.7517 67.7611 47.839 67.636 47.9065C67.5068 47.9779 67.3712 48.0368 67.2311 48.0827L68.8019 49.8661H67.2731L65.8218 48.1986H64.408L64.4146 49.8773ZM66.9722 46.7807C66.9741 46.7048 66.9621 46.6293 66.9368 46.5578C66.9101 46.496 66.8653 46.4439 66.8085 46.4084C66.7331 46.3657 66.6506 46.337 66.5651 46.3237C66.4398 46.3061 66.3133 46.2979 66.1868 46.2992H64.4169V47.2667H66.1868C66.3134 47.2685 66.44 47.2595 66.5651 47.24C66.651 47.2293 66.7338 47.2013 66.8085 47.1575C66.8653 47.122 66.9101 47.0699 66.9368 47.0081C66.9628 46.9353 66.9748 46.8581 66.9722 46.7807Z" fill="black"></path>
    <path d="M69.7227 49.8772V45.3516H71.0191V49.8772H69.7227Z" fill="black"></path>
    <path d="M77.9909 48.6311C77.9929 48.7829 77.9682 48.9339 77.9179 49.077C77.8712 49.2014 77.8013 49.3156 77.7121 49.4136C77.6217 49.5065 77.5152 49.582 77.398 49.6366C77.2681 49.6966 77.1324 49.7429 76.9931 49.7748C76.838 49.8102 76.6805 49.8333 76.5218 49.8439C76.3537 49.8573 76.1789 49.864 75.9997 49.864H72.5195V45.3384H75.9377C76.0749 45.3384 76.2121 45.3384 76.3515 45.354C76.4848 45.3643 76.6171 45.3844 76.7475 45.4142C76.8689 45.443 76.9868 45.4848 77.0993 45.539C77.205 45.5908 77.3009 45.661 77.3825 45.7464C77.4638 45.8365 77.527 45.9417 77.5683 46.0562C77.6172 46.1934 77.6404 46.3385 77.6369 46.4843C77.6528 46.7373 77.5738 46.9871 77.4157 47.1843C77.2192 47.378 76.9634 47.4991 76.69 47.5276C76.8931 47.5378 77.0944 47.5722 77.2895 47.6302C77.4372 47.6715 77.575 47.7428 77.6944 47.8397C77.7978 47.9268 77.8777 48.0387 77.9267 48.1652C77.9769 48.3151 77.9986 48.4732 77.9909 48.6311ZM76.3736 46.6938C76.3742 46.6382 76.3644 46.5831 76.3448 46.5311C76.3256 46.4769 76.2909 46.4296 76.2453 46.3951C76.1859 46.3501 76.1182 46.3175 76.0462 46.2992C75.9413 46.2726 75.8334 46.2606 75.7254 46.2636H73.8138V47.1129H75.7254C75.8333 47.1154 75.941 47.1042 76.0462 47.0795C76.1177 47.0633 76.1854 47.033 76.2453 46.9903C76.2909 46.9567 76.3255 46.9101 76.3448 46.8566C76.3647 46.8039 76.3744 46.7479 76.3736 46.6916V46.6938ZM76.6745 48.4773C76.6777 48.3914 76.6586 48.3061 76.6192 48.2299C76.578 48.1638 76.5167 48.113 76.4444 48.0849C76.3458 48.0472 76.2421 48.0246 76.1369 48.0181C76.0108 48.0181 75.8603 48.0002 75.6944 48.0002H73.8227V48.9589H75.6811C75.8559 48.9589 76.0063 48.9589 76.1236 48.9432C76.2291 48.9372 76.333 48.9138 76.4311 48.8741C76.5031 48.8446 76.5642 48.7932 76.6059 48.727C76.6487 48.6539 76.6723 48.5711 76.6745 48.4862V48.4773Z" fill="black"></path>
    <path d="M84.6542 48.9921C84.5204 49.207 84.3376 49.3866 84.121 49.516C83.8465 49.6802 83.5478 49.7991 83.236 49.8682C82.8282 49.9614 82.4108 50.0055 81.9927 49.9998C81.5723 50.0054 81.1528 49.9612 80.7426 49.8682C80.4307 49.7996 80.1319 49.6807 79.8577 49.516C79.6411 49.3866 79.4583 49.207 79.3245 48.9921C79.2081 48.7993 79.1468 48.5779 79.1475 48.3523V45.3516H80.4373V47.9131C80.4371 48.0588 80.458 48.2037 80.4993 48.3434C80.5382 48.4803 80.6149 48.6032 80.7205 48.6978C80.8591 48.8118 81.0207 48.8939 81.194 48.9386C81.4541 49.0052 81.7221 49.0352 81.9904 49.0278C82.2558 49.0351 82.5209 49.0051 82.7781 48.9386C82.9514 48.8939 83.1129 48.8118 83.2515 48.6978C83.358 48.6039 83.4349 48.4807 83.4728 48.3434C83.5133 48.2036 83.5334 48.0587 83.5325 47.9131V45.3516H84.8268V48.3523C84.8288 48.5775 84.7691 48.7989 84.6542 48.9921Z" fill="black"></path>
    <path d="M88.986 46.3347V49.8772H87.6895V46.3347H85.6562V45.3516H91.0258V46.3347H88.986Z" fill="black"></path>
    <path d="M91.8799 49.8772V45.3516H93.1742V49.8772H91.8799Z" fill="black"></path>
    <path d="M100.882 47.6169C100.892 47.9732 100.816 48.3266 100.661 48.6469C100.509 48.9465 100.286 49.2032 100.011 49.3937C99.6995 49.6048 99.3522 49.7559 98.9864 49.8396C98.0952 50.0447 97.1696 50.0447 96.2784 49.8396C95.9106 49.7554 95.5612 49.6043 95.2474 49.3937C94.968 49.2042 94.7399 48.9475 94.5837 48.6469C94.4321 48.325 94.3535 47.9732 94.3535 47.6169C94.3535 47.2606 94.4321 46.9088 94.5837 46.587C94.7399 46.287 94.9681 46.031 95.2474 45.8423C95.5608 45.6308 95.9103 45.4797 96.2784 45.3965C97.1696 45.1914 98.0952 45.1914 98.9864 45.3965C99.3525 45.4792 99.7 45.6304 100.011 45.8423C100.286 46.0318 100.51 46.2878 100.661 46.587C100.816 46.9075 100.891 47.2607 100.882 47.6169ZM99.5749 47.6169C99.5744 47.4453 99.5453 47.2749 99.4886 47.1131C99.4267 46.941 99.3224 46.7876 99.1855 46.6672C99.0123 46.5174 98.8094 46.4065 98.5904 46.3417C98.2786 46.2505 97.9547 46.2084 97.6302 46.2169C97.3995 46.2134 97.169 46.2329 96.9421 46.2748C96.7653 46.3066 96.593 46.3598 96.4288 46.4331C96.2964 46.4943 96.1741 46.5755 96.066 46.6739C95.9731 46.7583 95.894 46.8568 95.8315 46.9659C95.7757 47.0683 95.7341 47.1778 95.7076 47.2914C95.661 47.5119 95.661 47.7398 95.7076 47.9602C95.7333 48.0755 95.775 48.1866 95.8315 48.2902C95.8946 48.3982 95.9737 48.4959 96.066 48.58C96.1738 48.6776 96.2962 48.7574 96.4288 48.8163C96.593 48.8897 96.7653 48.9428 96.9421 48.9746C97.1692 49.0155 97.3995 49.0349 97.6302 49.0326C97.9547 49.041 98.2786 48.9989 98.5904 48.9077C98.8096 48.8422 99.0124 48.7305 99.1855 48.58C99.3226 48.4598 99.4269 48.3063 99.4886 48.1341C99.5465 47.968 99.5757 47.793 99.5749 47.6169Z" fill="black"></path>
    <path d="M106.596 49.8772L103.359 46.7561V49.8772H102.064V45.3516H103.472L106.711 48.4727V45.3516H107.998V49.8772H106.596Z" fill="black"></path>
  </g>
  <defs>
    <clipPath id="clip0_431_2232">
      <rect width="108" height="50" fill="white"></rect>
    </clipPath>
  </defs>
</svg>
