<?xml version="1.0" encoding="UTF-8"?>
<svg xmlns="http://www.w3.org/2000/svg" width="108" height="50" viewBox="0 0 108 50" fill="none">
  <g clip-path="url(#clip0_1832_1115)">
    <path d="M1.26773 34.4346L12.0202 24.8261C12.0069 24.5073 11.9958 24.1863 11.9958 23.843V0H0.0708008V27.9985C0.0708008 30.3646 0.41889 32.4074 1.11507 34.127C1.15932 34.234 1.21905 34.3299 1.26773 34.4346Z" fill="white"></path>
    <path d="M21.7349 32.4282C20.2106 32.4512 18.6876 32.3288 17.1862 32.0626H17.1618L7.69482 40.0593C8.58822 40.3964 9.50426 40.669 10.436 40.8752C12.8682 41.4118 15.8181 41.68 19.2858 41.68H44.3615V32.4282H21.7349Z" fill="white"></path>
    <path d="M107.066 13.7418C106.502 11.8002 105.615 9.96915 104.442 8.32664C103.328 6.78936 101.951 5.46447 100.376 4.41412C98.7349 3.32658 96.9574 2.4644 95.0903 1.85036C93.0553 1.182 90.9617 0.710226 88.838 0.441411C86.5256 0.140258 84.1961 -0.00868186 81.8644 -0.00445983H60.4414L69.5411 9.06679H80.6476C83.45 9.06679 85.8284 9.30385 87.7827 9.77796C89.737 10.2521 91.3167 10.9699 92.5217 11.9315C93.7196 12.8807 94.6301 14.1487 95.1501 15.5921C95.6958 17.068 95.9687 18.8068 95.9687 20.8088C95.9687 22.8108 95.6958 24.5504 95.1501 26.0277C94.6224 27.4762 93.7102 28.7509 92.5129 29.7129C91.3019 30.6938 89.7222 31.422 87.7738 31.8976C85.8254 32.3732 83.447 32.6103 80.6387 32.6088H65.8154V18.0578L53.8904 5.48867V41.68H81.933C84.2647 41.6843 86.5941 41.5353 88.9066 41.2342C91.0276 40.9685 93.1183 40.4982 95.1501 39.8297C97.0074 39.2188 98.7731 38.3547 100.398 37.2615C101.959 36.197 103.328 34.8697 104.442 33.3378C105.617 31.6975 106.503 29.8658 107.062 27.9227C107.684 25.842 107.995 23.4707 107.993 20.8088C108.03 18.42 107.718 16.0388 107.066 13.7418Z" fill="white"></path>
    <path d="M1.29434 47.9401C1.28722 48.0977 1.30362 48.2555 1.34301 48.4082C1.37465 48.5191 1.4377 48.6183 1.52443 48.6936C1.62002 48.7684 1.73252 48.8182 1.85187 48.8385C2.0149 48.8658 2.18 48.8785 2.34525 48.8764H4.8099V49.8818H2.08639C1.76255 49.8858 1.4392 49.8552 1.12177 49.7904C0.891387 49.7462 0.672345 49.6551 0.477952 49.5229C0.314657 49.4068 0.187938 49.2459 0.1129 49.0592C0.032685 48.8457 -0.00563521 48.6186 6.60851e-05 48.3904V45.3518H1.29434V47.9401Z" fill="white"></path>
    <path d="M11.3298 48.9923C11.1968 49.2097 11.014 49.3916 10.7966 49.5229C10.5225 49.6878 10.2236 49.8068 9.91165 49.8752C9.5038 49.9683 9.08643 50.0125 8.66826 50.0067C8.24864 50.0124 7.82981 49.9683 7.42045 49.8752C7.10844 49.8069 6.80953 49.688 6.53548 49.5229C6.31346 49.3931 6.12595 49.2111 5.98901 48.9923C5.87355 48.7992 5.81237 48.578 5.81201 48.3525V45.3518H7.09522V47.9133C7.09428 48.0589 7.11441 48.2039 7.15496 48.3436C7.19475 48.4801 7.27134 48.6028 7.3762 48.6981C7.51565 48.812 7.67793 48.8941 7.85188 48.9388C8.11128 49.0053 8.37857 49.0353 8.64614 49.028C8.91152 49.0354 9.17662 49.0053 9.43377 48.9388C9.60706 48.8941 9.76862 48.812 9.90723 48.6981C10.0128 48.6034 10.0896 48.4805 10.1285 48.3436C10.1672 48.2035 10.1866 48.0587 10.186 47.9133V45.3518H11.5201V48.3525C11.5167 48.5794 11.4508 48.8009 11.3298 48.9923Z" fill="white"></path>
    <path d="M16.1485 47.5544L18.4251 49.8774H16.8764L15.3763 48.3525L13.8829 49.8774H12.3342L14.6064 47.5544L12.4471 45.3518H13.9958L15.3741 46.7674L16.7591 45.3518H18.3078L16.1485 47.5544Z" fill="white"></path>
    <path d="M24.757 48.9923C24.6224 49.2073 24.4388 49.3869 24.2216 49.5162C23.9474 49.681 23.6486 49.7999 23.3366 49.8685C22.5146 50.0439 21.6653 50.0439 20.8432 49.8685C20.5315 49.7995 20.2327 49.6805 19.9583 49.5162C19.7417 49.3868 19.5589 49.2072 19.4251 48.9923C19.308 48.7998 19.246 48.5783 19.2458 48.3525V45.3518H20.5379V47.9133C20.5366 48.0591 20.5575 48.2042 20.5999 48.3436C20.6388 48.4805 20.7155 48.6034 20.8211 48.6981C20.9597 48.812 21.1213 48.8941 21.2946 48.9388C21.554 49.0053 21.8213 49.0353 22.0888 49.028C22.3549 49.0353 22.6208 49.0052 22.8787 48.9388C23.052 48.8941 23.2135 48.812 23.3521 48.6981C23.4579 48.6036 23.5347 48.4806 23.5734 48.3436C23.6139 48.2039 23.634 48.0589 23.6331 47.9133V45.3518H24.9274V48.3525C24.93 48.5775 24.8711 48.7989 24.757 48.9923Z" fill="white"></path>
    <path d="M27.6974 49.8774H26.4009V45.3518H29.6487C29.9468 45.3462 30.2443 45.3799 30.5337 45.4521C30.7494 45.5068 30.9513 45.6063 31.1266 45.7442C31.2743 45.8608 31.3887 46.0146 31.4585 46.19C31.5298 46.3786 31.565 46.579 31.5625 46.7808C31.5659 46.952 31.5366 47.1223 31.4762 47.2824C31.4266 47.4176 31.3515 47.5417 31.255 47.648C31.1573 47.7518 31.0438 47.8391 30.9187 47.9066C30.7895 47.978 30.6539 48.0369 30.5138 48.0828L32.0846 49.8662H30.5691L29.1177 48.1987H27.704L27.6974 49.8774ZM30.2549 46.7808C30.2572 46.7047 30.2444 46.6289 30.2173 46.5579C30.1922 46.4958 30.148 46.4435 30.0912 46.4085C30.0158 46.3658 29.9333 46.3371 29.8479 46.3238C29.7225 46.3062 29.5961 46.298 29.4695 46.2993H27.6996V47.2668H29.4695C29.5962 47.2686 29.7227 47.2596 29.8479 47.2401C29.9337 47.2294 30.0165 47.2014 30.0912 47.1576C30.148 47.1226 30.1922 47.0703 30.2173 47.0082C30.2452 46.9358 30.258 46.8584 30.2549 46.7808Z" fill="white"></path>
    <path d="M35.7352 48.0293V49.8774H34.4432V48.0293L32.1179 45.354H33.5715L35.0936 47.1754L36.6092 45.354H38.0694L35.7352 48.0293Z" fill="white"></path>
    <path d="M47.5163 47.6101C47.5202 47.8715 47.4866 48.132 47.4168 48.3837C47.3551 48.5947 47.2587 48.7936 47.1314 48.9723C47.01 49.1388 46.8601 49.2822 46.6889 49.3958C46.513 49.5167 46.3208 49.6113 46.1181 49.6767C45.8978 49.7498 45.6711 49.8013 45.4411 49.8306C45.1901 49.8624 44.9374 49.878 44.6844 49.8774H41.6423V45.3518H44.68C44.933 45.3511 45.1857 45.3668 45.4367 45.3986C45.6676 45.4271 45.8951 45.4786 46.1159 45.5524C46.3193 45.6185 46.5129 45.7122 46.6911 45.8311C46.8624 45.9447 47.0122 46.0882 47.1336 46.2547C47.2601 46.4338 47.3565 46.6326 47.419 46.8432C47.4881 47.0928 47.5209 47.3511 47.5163 47.6101ZM46.211 47.6101C46.2153 47.4176 46.1853 47.2258 46.1225 47.0439C46.066 46.8873 45.9672 46.7499 45.8371 46.6471C45.683 46.5366 45.5072 46.4606 45.3216 46.4241C45.0674 46.368 44.8075 46.3418 44.5473 46.3461H42.9366V48.9032H44.5473C44.8074 48.9081 45.0673 48.8826 45.3216 48.8274C45.5085 48.7862 45.6843 48.7048 45.8371 48.5888C45.9671 48.4831 46.0658 48.3436 46.1225 48.1853C46.1863 48.0005 46.2162 47.8057 46.211 47.6101Z" fill="white"></path>
    <path d="M48.689 49.8774V45.3518H49.9832V49.8774H48.689Z" fill="white"></path>
    <path d="M55.9148 46.6248C55.8241 46.5846 55.6935 46.5378 55.5541 46.4843C55.4148 46.4308 55.2356 46.3818 55.0475 46.3349C54.8594 46.2881 54.6537 46.248 54.4324 46.2146C54.2074 46.183 53.9804 46.1674 53.7532 46.1677C53.5652 46.1677 53.4081 46.1677 53.2753 46.1833C53.164 46.1922 53.0532 46.2071 52.9435 46.2279C52.8679 46.2406 52.7938 46.2607 52.7222 46.2881C52.6787 46.3049 52.6383 46.3291 52.6028 46.3595C52.5811 46.3751 52.5637 46.3959 52.5521 46.4201C52.5405 46.4442 52.5351 46.4709 52.5364 46.4977C52.5388 46.5329 52.5495 46.567 52.5676 46.5972C52.5857 46.6275 52.6106 46.653 52.6404 46.6716C52.7288 46.7284 52.8249 46.7719 52.9258 46.8009C53.0646 46.845 53.2056 46.8814 53.3483 46.9101L53.8594 47.0171C54.0408 47.0528 54.2267 47.0929 54.4192 47.1353C54.6116 47.1776 54.7975 47.2289 54.9767 47.2846C55.1522 47.3393 55.3238 47.4064 55.49 47.4853C55.6415 47.5552 55.7835 47.6443 55.9126 47.7506C56.0295 47.8464 56.1265 47.9646 56.198 48.0984C56.2688 48.236 56.3045 48.3892 56.3019 48.5442C56.3075 48.738 56.2657 48.9301 56.1803 49.1038C56.1007 49.257 55.9899 49.3915 55.855 49.4984C55.7118 49.6093 55.552 49.6966 55.3816 49.757C55.198 49.8232 55.0093 49.8739 54.8174 49.9086C54.6197 49.9429 54.4203 49.9659 54.22 49.9777C54.0187 49.9777 53.8262 49.9933 53.647 49.9933C53.2021 49.9964 52.7578 49.9591 52.3196 49.8818C51.956 49.8189 51.598 49.7272 51.2487 49.6076V48.5264C51.5943 48.7035 51.9608 48.8353 52.3395 48.9188C52.7701 49.0156 53.2102 49.0634 53.6514 49.0614C53.8734 49.0637 54.0953 49.0496 54.3152 49.0191C54.4547 49.0012 54.5914 48.966 54.7223 48.9143C54.8003 48.8871 54.8693 48.8385 54.9214 48.7739C54.9536 48.7323 54.9721 48.6816 54.9745 48.6289C54.9732 48.5913 54.9631 48.5546 54.9451 48.5216C54.927 48.4887 54.9014 48.4605 54.8705 48.4394C54.7828 48.3773 54.6856 48.3299 54.5829 48.299C54.4444 48.2527 54.3033 48.2147 54.1603 48.1853L53.6492 48.0828C53.47 48.0493 53.2842 48.0136 53.0917 47.9735C52.8992 47.9334 52.7156 47.8866 52.5364 47.8331C52.3621 47.7822 52.1913 47.7196 52.0253 47.6458C51.8737 47.5807 51.7316 47.4952 51.6027 47.3917C51.498 47.3012 51.4103 47.1924 51.3439 47.0706C51.273 46.933 51.2373 46.7798 51.2399 46.6248C51.2351 46.4457 51.2738 46.2681 51.3527 46.1075C51.425 45.9629 51.5277 45.8358 51.6536 45.7352C51.7874 45.6301 51.9367 45.5466 52.0961 45.4878C52.2661 45.4223 52.4416 45.3723 52.6205 45.3384C52.8056 45.3044 52.9925 45.2805 53.1802 45.2671C53.369 45.2537 53.5482 45.247 53.7178 45.247C53.9037 45.247 54.0939 45.247 54.2908 45.2738C54.4878 45.3005 54.6824 45.3161 54.8727 45.3473C55.063 45.3785 55.2466 45.4164 55.4258 45.4566C55.605 45.4967 55.7688 45.5435 55.9214 45.5881L55.9148 46.6248Z" fill="white"></path>
    <path d="M60.2247 46.3349V49.8774H58.9305V46.3349H56.895V45.3518H62.2624V46.3349H60.2247Z" fill="white"></path>
    <path d="M64.4151 49.8774H63.1187V45.3518H66.3665C66.6646 45.3461 66.9621 45.3798 67.2515 45.4521C67.4673 45.5063 67.6694 45.6058 67.8444 45.7442C67.992 45.8608 68.1065 46.0146 68.1763 46.19C68.2485 46.3783 68.2838 46.579 68.2803 46.7808C68.2836 46.952 68.2543 47.1223 68.194 47.2824C68.1452 47.418 68.07 47.5423 67.9727 47.648C67.8751 47.7518 67.7615 47.8391 67.6364 47.9066C67.5073 47.978 67.3717 48.0369 67.2316 48.0828L68.8024 49.8662H67.2736L65.8222 48.1987H64.4085L64.4151 49.8774ZM66.9727 46.7808C66.9746 46.7049 66.9626 46.6294 66.9373 46.5579C66.9106 46.4961 66.8658 46.444 66.809 46.4085C66.7335 46.3658 66.6511 46.3371 66.5656 46.3238C66.4403 46.3062 66.3138 46.298 66.1873 46.2993H64.4174V47.2668H66.1873C66.3139 47.2686 66.4405 47.2596 66.5656 47.2401C66.6514 47.2294 66.7342 47.2014 66.809 47.1576C66.8658 47.122 66.9106 47.07 66.9373 47.0082C66.9633 46.9354 66.9753 46.8582 66.9727 46.7808Z" fill="white"></path>
    <path d="M69.7227 49.8774V45.3518H71.0191V49.8774H69.7227Z" fill="white"></path>
    <path d="M77.9906 48.6312C77.9927 48.783 77.9679 48.9339 77.9176 49.077C77.8709 49.2014 77.8011 49.3157 77.7119 49.4137C77.6214 49.5065 77.515 49.5821 77.3977 49.6366C77.2678 49.6966 77.1322 49.743 76.9928 49.7748C76.8378 49.8102 76.6802 49.8333 76.5216 49.8439C76.3534 49.8573 76.1787 49.864 75.9994 49.864H72.5193V45.3384H75.9375C76.0747 45.3384 76.2118 45.3384 76.3512 45.354C76.4845 45.3644 76.6169 45.3845 76.7473 45.4142C76.8686 45.443 76.9866 45.4848 77.099 45.5391C77.2048 45.5909 77.3007 45.661 77.3822 45.7464C77.4636 45.8365 77.5267 45.9418 77.5681 46.0563C77.6169 46.1935 77.6402 46.3386 77.6366 46.4843C77.6525 46.7373 77.5736 46.9871 77.4154 47.1843C77.2189 47.3781 76.9632 47.4991 76.6897 47.5276C76.8929 47.5378 77.0942 47.5723 77.2893 47.6302C77.437 47.6716 77.5748 47.7429 77.6942 47.8398C77.7975 47.9268 77.8774 48.0388 77.9265 48.1652C77.9766 48.3151 77.9984 48.4732 77.9906 48.6312ZM76.3734 46.6939C76.3739 46.6383 76.3642 46.5831 76.3446 46.5311C76.3253 46.477 76.2907 46.4297 76.245 46.3951C76.1857 46.3501 76.118 46.3175 76.0459 46.2993C75.9411 46.2726 75.8332 46.2606 75.7251 46.2636H73.8136V47.113H75.7251C75.833 47.1155 75.9408 47.1042 76.0459 47.0795C76.1175 47.0634 76.1851 47.0331 76.245 46.9904C76.2906 46.9567 76.3253 46.9101 76.3446 46.8566C76.3644 46.8039 76.3742 46.748 76.3734 46.6916V46.6939ZM76.6742 48.4774C76.6774 48.3914 76.6584 48.3061 76.6189 48.2299C76.5777 48.1638 76.5164 48.113 76.4442 48.085C76.3456 48.0472 76.2419 48.0247 76.1366 48.0181C76.0105 48.0181 75.8601 48.0003 75.6941 48.0003H73.8224V48.9589H75.6809C75.8556 48.9589 76.0061 48.9589 76.1233 48.9433C76.2289 48.9372 76.3328 48.9138 76.4309 48.8742C76.5029 48.8446 76.564 48.7932 76.6057 48.727C76.6484 48.654 76.672 48.5711 76.6742 48.4863V48.4774Z" fill="white"></path>
    <path d="M84.6545 48.9923C84.5206 49.2072 84.3378 49.3868 84.1213 49.5162C83.8468 49.6804 83.548 49.7993 83.2363 49.8685C82.8284 49.9616 82.4111 50.0058 81.9929 50C81.5726 50.0056 81.153 49.9615 80.7429 49.8685C80.431 49.7998 80.1321 49.6809 79.8579 49.5162C79.6413 49.3868 79.4585 49.2072 79.3247 48.9923C79.2083 48.7996 79.147 48.5781 79.1477 48.3525V45.3518H80.4376V47.9133C80.4373 48.059 80.4582 48.204 80.4995 48.3436C80.5384 48.4805 80.6152 48.6034 80.7207 48.6981C80.8594 48.812 81.0209 48.8941 81.1942 48.9388C81.4544 49.0054 81.7224 49.0354 81.9907 49.028C82.2561 49.0354 82.5212 49.0053 82.7783 48.9388C82.9516 48.8941 83.1132 48.812 83.2518 48.6981C83.3582 48.6042 83.4351 48.481 83.473 48.3436C83.5136 48.2039 83.5337 48.0589 83.5328 47.9133V45.3518H84.827V48.3525C84.829 48.5777 84.7693 48.7991 84.6545 48.9923Z" fill="white"></path>
    <path d="M88.9865 46.3349V49.8774H87.69V46.3349H85.6567V45.3518H91.0263V46.3349H88.9865Z" fill="white"></path>
    <path d="M91.8801 49.8774V45.3518H93.1744V49.8774H91.8801Z" fill="white"></path>
    <path d="M100.883 47.6168C100.893 47.9731 100.817 48.3265 100.661 48.6468C100.51 48.9464 100.286 49.2031 100.011 49.3936C99.6998 49.6047 99.3525 49.7558 98.9866 49.8395C98.0954 50.0446 97.1698 50.0446 96.2786 49.8395C95.9109 49.7553 95.5615 49.6042 95.2476 49.3936C94.9682 49.2041 94.7401 48.9474 94.5839 48.6468C94.4324 48.3249 94.3538 47.9731 94.3538 47.6168C94.3538 47.2606 94.4324 46.9087 94.5839 46.5869C94.7402 46.2869 94.9683 46.0309 95.2476 45.8423C95.561 45.6307 95.9106 45.4796 96.2786 45.3964C97.1698 45.1913 98.0954 45.1913 98.9866 45.3964C99.3528 45.4791 99.7002 45.6303 100.011 45.8423C100.286 46.0317 100.51 46.2877 100.661 46.5869C100.816 46.9074 100.892 47.2606 100.883 47.6168ZM99.5751 47.6168C99.5747 47.4452 99.5455 47.2749 99.4889 47.113C99.4269 46.9409 99.3226 46.7875 99.1858 46.6671C99.0125 46.5173 98.8096 46.4064 98.5906 46.3416C98.2788 46.2504 97.955 46.2083 97.6304 46.2168C97.3997 46.2134 97.1693 46.2328 96.9424 46.2747C96.7656 46.3065 96.5932 46.3597 96.4291 46.433C96.2967 46.4942 96.1743 46.5754 96.0662 46.6738C95.9734 46.7582 95.8942 46.8567 95.8317 46.9658C95.776 47.0682 95.7343 47.1777 95.7078 47.2913C95.6613 47.5118 95.6613 47.7397 95.7078 47.9601C95.7335 48.0754 95.7752 48.1865 95.8317 48.2901C95.8949 48.3981 95.974 48.4958 96.0662 48.5799C96.174 48.6775 96.2965 48.7573 96.4291 48.8162C96.5932 48.8896 96.7656 48.9427 96.9424 48.9745C97.1694 49.0154 97.3998 49.0348 97.6304 49.0325C97.955 49.0409 98.2788 48.9988 98.5906 48.9076C98.8098 48.8421 99.0127 48.7304 99.1858 48.5799C99.3228 48.4597 99.4272 48.3062 99.4889 48.134C99.5468 47.9679 99.576 47.7929 99.5751 47.6168Z" fill="white"></path>
    <path d="M106.595 49.8774L103.358 46.7563V49.8774H102.064V45.3518H103.471L106.71 48.4729V45.3518H107.998V49.8774H106.595Z" fill="white"></path>
  </g>
  <defs>
    <clipPath id="clip0_1832_1115">
      <rect width="108" height="50" fill="white"></rect>
    </clipPath>
  </defs>
</svg>
