<svg width="14" height="14" viewBox="0 0 14 14" fill="none" xmlns="http://www.w3.org/2000/svg">
<path fill-rule="evenodd" clip-rule="evenodd" d="M2.21138 2.21138C2.49317 1.92954 2.95425 1.92954 3.23609 2.21138L4.31388 3.28916L10.7108 9.68612L11.7886 10.7639C12.0705 11.0457 12.0705 11.5068 11.7886 11.7886C11.5068 12.0705 11.0457 12.0705 10.7639 11.7886L9.68612 10.7108L3.28916 4.31386L2.21138 3.23609C1.92954 2.95425 1.92954 2.49315 2.21138 2.21138Z" fill="white"/>
<path fill-rule="evenodd" clip-rule="evenodd" d="M2.21138 11.7886C1.92954 11.5068 1.92954 11.0457 2.21138 10.7639L3.28916 9.68612L9.68612 3.28916L10.7639 2.21138C11.0457 1.92954 11.5068 1.92954 11.7886 2.21138C12.0705 2.49317 12.0705 2.95425 11.7886 3.23609L10.7108 4.31388L4.31388 10.7108L3.23609 11.7886C2.95425 12.0705 2.49315 12.0705 2.21138 11.7886Z" fill="white"/>
</svg>
