<svg width="12" height="12" viewBox="0 0 12 12" fill="none" xmlns="http://www.w3.org/2000/svg">
<g clip-path="url(#clip0_74_1292)">
<path d="M11.9766 3.23907C11.9063 2.91564 11.7141 2.69767 11.3859 2.60626C11.0274 2.50548 10.7297 2.61564 10.4766 2.8711C9.49454 3.85548 8.51486 4.8422 7.53517 5.82892C7.04298 6.3211 6.54611 6.81095 6.00236 7.35236L1.51642 2.86642C1.14142 2.49142 0.607043 2.47032 0.260168 2.80079C-0.0867072 3.13126 -0.0913947 3.69142 0.27423 4.05939C1.96642 5.76095 3.66564 7.46017 5.3672 9.15235C5.73751 9.52032 6.25782 9.5297 6.62111 9.16642C8.33204 7.4672 10.0359 5.76329 11.7352 4.0547C11.9578 3.8297 12.0469 3.55314 11.9766 3.23907Z" fill="#fff"/>
</g>
<defs>
<clipPath id="clip0_74_1292">
<rect width="12" height="12" fill="white"/>
</clipPath>
</defs>
</svg>
