<svg width="18" height="18" viewBox="0 0 18 18" fill="none" xmlns="http://www.w3.org/2000/svg">
<g clip-path="url(#clip0_251_606)">
<path d="M17.5145 7.82913C17.514 7.82872 17.5136 7.82831 17.5132 7.8279L10.1706 0.485596C9.85767 0.172485 9.44156 0 8.99895 0C8.55634 0 8.14023 0.172348 7.82712 0.485458L0.488391 7.82405C0.485919 7.82652 0.483447 7.82913 0.480976 7.8316C-0.161725 8.47801 -0.160626 9.52679 0.484134 10.1716C0.778705 10.4663 1.16776 10.637 1.58373 10.6548C1.60062 10.6565 1.61765 10.6573 1.63481 10.6573H1.92746V16.0608C1.92746 17.13 2.79744 18 3.86696 18H6.73961C7.03075 18 7.26696 17.7639 7.26696 17.4727V13.2363C7.26696 12.7484 7.66384 12.3515 8.15177 12.3515H9.84613C10.3341 12.3515 10.7309 12.7484 10.7309 13.2363V17.4727C10.7309 17.7639 10.967 18 11.2583 18H14.1309C15.2005 18 16.0704 17.13 16.0704 16.0608V10.6573H16.3418C16.7843 10.6573 17.2004 10.4849 17.5136 10.1718C18.1591 9.52597 18.1594 8.4754 17.5145 7.82913Z" fill="#666666"/>
</g>
<defs>
<clipPath id="clip0_251_606">
<rect width="18" height="18" fill="white"/>
</clipPath>
</defs>
</svg>
