<svg width="50" height="50" viewBox="0 0 50 50" fill="none" xmlns="http://www.w3.org/2000/svg">
<path d="M15.1961 22.549H7.35294C3.29203 22.549 0 19.257 0 15.1961V7.35294C0 3.29203 3.29203 0 7.35294 0H15.1961C19.257 0 22.549 3.29203 22.549 7.35294V15.1961C22.549 19.257 19.257 22.549 15.1961 22.549ZM7.35294 2.94118C4.91642 2.94118 2.94118 4.91642 2.94118 7.35294V15.1961C2.94118 17.6326 4.91642 19.6078 7.35294 19.6078H15.1961C17.6326 19.6078 19.6078 17.6326 19.6078 15.1961V7.35294C19.6078 4.91642 17.6326 2.94118 15.1961 2.94118H7.35294Z" fill="black"/>
<path d="M15.1961 49.9999H7.35294C3.29203 49.9999 0 46.7079 0 42.647V34.8039C0 30.743 3.29203 27.4509 7.35294 27.4509H15.1961C19.257 27.4509 22.549 30.743 22.549 34.8039V42.647C22.549 46.7079 19.257 49.9999 15.1961 49.9999ZM7.35294 30.3921C4.91642 30.3921 2.94118 32.3673 2.94118 34.8039V42.647C2.94118 45.0835 4.91642 47.0588 7.35294 47.0588H15.1961C17.6326 47.0588 19.6078 45.0835 19.6078 42.647V34.8039C19.6078 32.3673 17.6326 30.3921 15.1961 30.3921H7.35294Z" fill="black"/>
<path d="M42.647 49.9999H34.8039C30.743 49.9999 27.4509 46.7079 27.4509 42.647V34.8039C27.4509 30.743 30.743 27.4509 34.8039 27.4509H42.647C46.7079 27.4509 49.9999 30.743 49.9999 34.8039V42.647C49.9999 46.7079 46.7079 49.9999 42.647 49.9999ZM34.8039 30.3921C32.3673 30.3921 30.3921 32.3673 30.3921 34.8039V42.647C30.3921 45.0835 32.3673 47.0588 34.8039 47.0588H42.647C45.0835 47.0588 47.0588 45.0835 47.0588 42.647V34.8039C47.0588 32.3673 45.0835 30.3921 42.647 30.3921H34.8039Z" fill="black"/>
<path d="M42.647 22.549H34.8039C30.743 22.549 27.4509 19.257 27.4509 15.1961V7.35294C27.4509 3.29203 30.743 0 34.8039 0H42.647C46.7079 0 49.9999 3.29203 49.9999 7.35294V15.1961C49.9999 19.257 46.7079 22.549 42.647 22.549ZM34.8039 2.94118C32.3673 2.94118 30.3921 4.91642 30.3921 7.35294V15.1961C30.3921 17.6326 32.3673 19.6078 34.8039 19.6078H42.647C45.0835 19.6078 47.0588 17.6326 47.0588 15.1961V7.35294C47.0588 4.91642 45.0835 2.94118 42.647 2.94118H34.8039Z" fill="black"/>
</svg>
