<svg width="67" height="67" viewBox="0 0 67 67" fill="none" xmlns="http://www.w3.org/2000/svg">
<circle cx="33.5" cy="33.5" r="33.5" fill="#1768F7"/>
<g clip-path="url(#clip0_77_1981)">
<path fill-rule="evenodd" clip-rule="evenodd" d="M27.7576 42.1106C26.2438 42.4674 24.8833 42.9505 23.7355 43.5312C23.8531 43.6578 23.9731 43.7823 24.0954 43.9046C25.9936 45.8063 28.3995 47.1208 31.0253 47.6906C30.1305 46.9153 29.3315 45.7984 28.6674 44.42C28.3107 43.6723 28.0068 42.9007 27.7576 42.1106ZM39.3733 41.923C38.1989 45.5972 36.2304 48.0072 34 48.0072C32.2644 48.0072 30.6641 46.4869 29.4793 44.0282C29.1533 43.345 28.8739 42.6406 28.643 41.9198C30.4085 41.5815 32.2024 41.4139 34 41.4192C35.8031 41.4138 37.6026 41.5826 39.3733 41.923H39.3733ZM44.264 43.5308C43.1125 42.9484 41.7469 42.4641 40.2274 42.1069C39.433 44.5662 38.2878 46.5257 36.9341 47.6983C39.7479 47.096 42.3074 45.6407 44.2641 43.5309L44.264 43.5308ZM26.5844 34.4518C26.6204 36.9134 26.9495 39.226 27.5022 41.246C25.8461 41.6398 24.3637 42.1796 23.1265 42.8301C21.1928 40.4563 20.0941 37.5121 20 34.4518H26.5844ZM40.5125 34.4518H27.4879C27.5238 36.8533 27.8452 39.1012 28.3836 41.0534C30.2336 40.6909 32.1148 40.5108 34 40.5156C35.8896 40.5107 37.7751 40.6918 39.6293 41.056C40.1595 39.1057 40.477 36.8552 40.5122 34.4518H40.5125ZM48.0003 34.4518C47.9062 37.5121 46.8074 40.4563 44.8735 42.83C43.6334 42.178 42.147 41.6378 40.4864 41.2434C41.0465 39.2222 41.3797 36.9121 41.4161 34.452L48.0003 34.4518ZM27.5019 26.7539C25.8458 26.3602 24.3633 25.8204 23.126 25.1698C21.1925 27.5437 20.094 30.4879 20 33.5482H26.5844C26.6204 31.0866 26.9495 28.774 27.5021 26.7539H27.5019ZM39.6164 26.9466C40.1548 28.8989 40.4761 31.1466 40.5121 33.5482H27.4879C27.5239 31.1467 27.8452 28.8988 28.3836 26.9466C30.2336 27.3091 32.1148 27.4892 34 27.4844C35.8852 27.4892 37.7664 27.3091 39.6164 26.9466ZM44.8728 25.1704C43.6359 25.8207 42.1539 26.3602 40.4981 26.7539C41.0507 28.7737 41.3798 31.0866 41.4158 33.5482H47.9992C47.9052 30.4881 46.8065 27.544 44.8728 25.1704ZM40.2423 25.8894C39.9932 25.0993 39.6892 24.3277 39.3326 23.58C38.6688 22.2024 37.8704 21.0862 36.9761 20.3107C39.7734 20.9188 42.3168 22.3704 44.263 24.4696C43.1155 25.0499 41.7555 25.5327 40.2423 25.8894ZM28.643 26.0802C30.4085 26.4185 32.2024 26.5861 34 26.5808C35.7976 26.5861 37.5915 26.4185 39.357 26.0802C39.1261 25.3594 38.8467 24.6549 38.5207 23.9718C37.3359 21.5134 35.7356 19.9928 34 19.9928C32.2644 19.9928 30.6641 21.5134 29.4793 23.9718C29.1533 24.655 28.8739 25.3594 28.643 26.0802ZM23.7355 24.4689C23.8532 24.3422 23.9732 24.2177 24.0954 24.0954C25.9936 22.1937 28.3996 20.8792 31.0254 20.3094C30.1305 21.0847 29.3315 22.2016 28.6674 23.58C28.3108 24.3277 28.0068 25.0993 27.7578 25.8894C26.2439 25.5325 24.8836 25.0495 23.7355 24.4689Z" fill="white"/>
</g>
<defs>
<clipPath id="clip0_77_1981">
<rect width="28" height="28" fill="white" transform="translate(20 20)"/>
</clipPath>
</defs>
</svg>
