<svg width="14" height="18" viewBox="0 0 14 18" fill="none" xmlns="http://www.w3.org/2000/svg">
<path d="M13.8468 14.7162C13.4442 13.5174 11.8386 12.767 10.6942 12.264C10.2458 12.0676 9.00438 11.7344 8.85518 11.1698C8.80178 10.9666 8.80878 10.7748 8.85278 10.591C8.78378 10.6044 8.71358 10.612 8.64138 10.612H7.89558C7.30038 10.612 6.81638 10.1278 6.81638 9.53261C6.81638 8.93801 7.30038 8.45461 7.89558 8.45461H8.64138C8.88778 8.45461 9.12158 8.53801 9.30978 8.68681C9.58578 8.65001 9.85218 8.59101 10.1008 8.51361C10.427 7.83021 10.6814 7.01301 10.7382 6.30961C10.9816 3.30001 9.13658 1.53922 6.49118 1.84362C4.56778 2.06502 3.41878 3.49921 3.29458 5.34561C3.16898 7.22761 3.86678 8.61761 4.60798 9.63701C4.93258 10.0828 5.27358 10.3696 5.22118 10.9066C5.16038 11.5418 4.48118 11.7186 3.99538 11.914C3.41979 12.1452 2.79979 12.4962 2.50699 12.6582C1.49839 13.2152 0.391387 13.886 0.142587 14.8034C-0.408413 16.837 1.45239 17.453 2.98859 17.7374C4.30698 17.9808 5.79358 18 7.01638 18C9.22798 18 13.2056 17.9112 13.8468 16.2488C14.0294 15.7768 13.951 15.0252 13.8468 14.7162Z" fill="#666666"/>
<path d="M9.11319 9.22859C9.01219 9.07439 8.83899 8.97199 8.64159 8.97199H7.89579C7.58459 8.97199 7.3336 9.22339 7.3336 9.53299C7.3336 9.84359 7.58459 10.0956 7.89579 10.0956H8.64159C8.85939 10.0956 9.04419 9.97139 9.13739 9.79199C10.1772 9.71019 11.0816 9.39259 11.7164 8.92359C11.862 9.01759 12.0346 9.07259 12.2208 9.07259H12.2676C12.7858 9.07259 13.205 8.65299 13.205 8.13399V6.2604C13.205 5.8872 12.9862 5.5652 12.6708 5.4156C12.533 2.4068 10.0424 0 7 0C3.9576 0 1.4666 2.4068 1.3296 5.4154C1.0134 5.5652 0.7948 5.887 0.7948 6.2602V8.13379C0.7948 8.65279 1.2144 9.07239 1.7316 9.07239H1.779C2.2966 9.07239 2.7164 8.65279 2.7164 8.13379V6.2602C2.7164 5.8924 2.5038 5.5752 2.1948 5.4218C2.3286 2.8868 4.4322 0.866199 7 0.866199C9.56679 0.866199 11.6714 2.8868 11.8048 5.4218C11.4962 5.5754 11.2836 5.8924 11.2836 6.2602V8.13379C11.2836 8.25819 11.3078 8.37399 11.3504 8.48219C10.804 8.87319 10.0086 9.15179 9.11319 9.22859Z" fill="#666666"/>
</svg>
