<svg width="48" height="46" viewBox="0 0 48 46" fill="none" xmlns="http://www.w3.org/2000/svg">
<path d="M3.47529 5.66263C3.63286 5.821 3.84027 5.90029 4.04706 5.90029C4.25305 5.90029 4.45924 5.82181 4.61641 5.66505C4.93235 5.35052 4.93316 4.83948 4.61883 4.52393L3.70852 3.6102L4.62186 2.70029C4.9378 2.38576 4.93861 1.87472 4.62428 1.55918C4.30974 1.24323 3.7983 1.24242 3.48316 1.55675L2.56942 2.46706L1.65952 1.55373C1.34458 1.23778 0.833138 1.23698 0.518403 1.55131C0.202458 1.86584 0.201651 2.37688 0.515982 2.69242L1.42629 3.60616L0.512956 4.51607C0.197011 4.8306 0.196204 5.34164 0.510535 5.65718C0.668105 5.81556 0.875506 5.89485 1.0823 5.89485C1.28829 5.89485 1.49448 5.81636 1.65165 5.6596L2.56539 4.74929L3.47529 5.66263Z" fill="black"/>
<path d="M44.0933 43.5787C44.7619 43.5787 45.3038 43.0368 45.3038 42.3682C45.3038 41.6997 44.7619 41.1577 44.0933 41.1577C43.4248 41.1577 42.8828 41.6997 42.8828 42.3682C42.8828 43.0368 43.4248 43.5787 44.0933 43.5787Z" fill="black"/>
<path d="M20.2866 23.4036C20.2866 26.0736 22.4587 28.2457 25.1287 28.2457C27.7987 28.2457 29.9708 26.0736 29.9708 23.4036C29.9708 20.7336 27.7987 18.5615 25.1287 18.5615C22.4587 18.5615 20.2866 20.7336 20.2866 23.4036ZM28.3567 23.4036C28.3567 25.1835 26.9086 26.6316 25.1287 26.6316C23.3488 26.6316 21.9006 25.1835 21.9006 23.4036C21.9006 21.6237 23.3488 20.1755 25.1287 20.1755C26.9086 20.1755 28.3567 21.6237 28.3567 23.4036Z" fill="black"/>
<path d="M44.8712 18.5615H43.8814C43.346 16.4782 42.4734 14.5185 41.281 12.7213L42.109 11.8933C42.6481 11.3542 42.9453 10.6374 42.9453 9.875C42.9453 9.11298 42.6481 8.39615 42.109 7.85747L39.8679 5.61619C38.7894 4.53762 36.909 4.53843 35.8321 5.61619L34.8154 6.63242C33.0525 5.61176 31.1566 4.88363 29.1635 4.46197V2.85379C29.1635 1.28032 27.8832 0 26.3097 0H23.14C21.5665 0 20.2862 1.28032 20.2862 2.85379V4.6502C18.3907 5.13723 16.5959 5.90329 14.9355 6.93324L13.6183 5.61599C12.5409 4.53863 10.6606 4.53783 9.58241 5.61599L7.34133 7.85706C6.80225 8.39615 6.50507 9.11298 6.50507 9.875C6.50507 10.6374 6.80225 11.3542 7.34133 11.8929L8.65858 13.2106C7.62863 14.871 6.86258 16.666 6.37554 18.5613H4.57914C3.00566 18.5613 1.72534 19.8416 1.72534 21.4151V24.5848C1.72534 26.1583 3.00566 27.4386 4.57914 27.4386H6.18731C6.60897 29.4317 7.3371 31.3274 8.35777 33.0905L7.34154 34.1067C6.80245 34.6458 6.50527 35.3626 6.50527 36.1251C6.50527 36.8871 6.80245 37.6039 7.34154 38.1426L9.58241 40.3839C10.661 41.4624 12.5413 41.4616 13.6183 40.3839L14.4465 39.5559C16.2437 40.7482 18.2033 41.6206 20.2866 42.1563V43.1461C20.2866 44.7195 21.5669 45.9999 23.1404 45.9999H26.3101C27.8836 45.9999 29.1639 44.7195 29.1639 43.1461V42.3449C31.3552 41.8819 33.4217 41.0529 35.3216 39.8734L35.8319 40.3837C36.91 41.4618 38.7904 41.4626 39.8677 40.3837L42.109 38.1428C42.6481 37.6037 42.9453 36.8869 42.9453 36.1249C42.9453 35.3624 42.6481 34.6456 42.109 34.1069L41.5988 33.5963C42.7782 31.6962 43.6072 29.6298 44.0702 27.4386H44.8714C46.4449 27.4386 47.7252 26.1583 47.7252 24.5848V21.4151C47.725 19.8418 46.4447 18.5615 44.8712 18.5615ZM46.111 24.5848C46.111 25.2685 45.5549 25.8246 44.8712 25.8246H43.4043C43.0123 25.8246 42.6771 26.1062 42.6096 26.4922C42.182 28.9293 41.2693 31.2057 39.897 33.2584C39.6829 33.5783 39.7251 34.005 39.9975 34.2774L40.9681 35.2487C41.2021 35.4823 41.3315 35.7936 41.3315 36.1251C41.3315 36.4561 41.2021 36.7674 40.9681 37.0015L38.7264 39.2428C38.2588 39.7112 37.4415 39.7104 36.9736 39.2428L36.0028 38.2721C35.73 37.9998 35.3037 37.9572 34.9837 38.1716C32.9311 39.5442 30.6547 40.4567 28.2175 40.8842C27.8318 40.952 27.5499 41.2869 27.5499 41.6789V43.1459C27.5499 43.8296 26.9939 44.3856 26.3101 44.3856H23.1404C22.4567 44.3856 21.9006 43.8296 21.9006 43.1459V41.5195C21.9006 41.1412 21.6377 40.8138 21.2685 40.7319C18.9385 40.215 16.7688 39.2464 14.8199 37.8533C14.6785 37.7524 14.5145 37.7028 14.351 37.7028C14.143 37.7028 13.936 37.7827 13.7801 37.9392L12.4766 39.2423C12.0097 39.71 11.1924 39.7108 10.7237 39.2423L8.48245 37.0007C8.24842 36.767 8.11909 36.4557 8.11909 36.1247C8.11909 35.7932 8.24842 35.4819 8.48245 35.2478L9.94475 33.7851C10.2103 33.5196 10.2577 33.1058 10.0585 32.7875C8.85267 30.8547 8.04142 28.7363 7.6478 26.4918C7.58001 26.1062 7.2451 25.8246 6.85309 25.8246H4.57893C3.89519 25.8246 3.33916 25.2685 3.33916 24.5848V21.4151C3.33916 20.7313 3.89519 20.1753 4.57893 20.1753H7.01228C7.39056 20.1753 7.71841 19.9124 7.79992 19.5428C8.27666 17.3929 9.13815 15.3762 10.36 13.5485C10.5742 13.2285 10.5323 12.8018 10.2599 12.5295L8.48225 10.7512C8.24821 10.5176 8.11889 10.2063 8.11889 9.87479C8.11889 9.54372 8.24821 9.23241 8.48225 8.99838L10.7239 6.75711C11.1916 6.28864 12.0089 6.28944 12.4768 6.75711L14.2546 8.53475C14.5274 8.80712 14.9529 8.85029 15.2737 8.63482C17.1013 7.4128 19.1181 6.55152 21.2679 6.07478C21.6375 5.99327 21.9004 5.66542 21.9004 5.28714V2.854C21.9004 2.17026 22.4565 1.61422 23.1402 1.61422H26.3099C26.9937 1.61422 27.5497 2.17026 27.5497 2.854V5.12795C27.5497 5.51996 27.8314 5.85507 28.2173 5.92266C30.4618 6.31628 32.5802 7.12773 34.513 8.3334C34.831 8.53273 35.2456 8.48512 35.5107 8.21961L36.9738 6.75731C37.4406 6.28965 38.2579 6.28884 38.7266 6.75731L40.9679 8.99898C41.2019 9.23261 41.3312 9.54392 41.3312 9.875C41.3312 10.2065 41.2019 10.5178 40.9679 10.7518L39.6648 12.0549C39.3857 12.334 39.3496 12.7736 39.5788 13.0948C40.9717 15.0437 41.9403 17.2134 42.4574 19.5434C42.5393 19.9126 42.8668 20.1755 43.2451 20.1755H44.8714C45.5551 20.1755 46.1112 20.7315 46.1112 21.4153V24.5848H46.111Z" fill="black"/>
<path d="M41.1366 19.4989L37.9243 17.0845C37.4074 16.6956 36.7705 16.5326 36.1295 16.6227C35.4895 16.7133 34.923 17.0482 34.5344 17.5649L32.1196 20.7776C31.5281 21.5649 31.4694 22.6198 31.9699 23.4638C32.4693 24.3093 33.4185 24.7665 34.395 24.6297L34.7307 24.5821C34.1416 29.3521 30.0206 33.0878 25.1285 33.0878C19.7887 33.0878 15.4444 28.7434 15.4444 23.4037C15.4444 18.0639 19.7887 13.7195 25.1285 13.7195C26.4635 13.7195 27.5495 12.6335 27.5495 11.2985C27.5495 9.96348 26.4635 8.87744 25.1285 8.87744C17.1187 8.87744 10.6023 15.3939 10.6023 23.4037C10.6023 31.4134 17.1187 37.9299 25.1285 37.9299C32.9775 37.9299 39.3922 31.6727 39.6468 23.8848L40.0223 23.8316C40.9956 23.6932 41.7822 22.989 42.0265 22.0378C42.0832 21.8175 42.1088 21.5901 42.1022 21.3609C42.0796 20.6217 41.7277 19.9432 41.1366 19.4989ZM40.4633 21.6355C40.3822 21.9526 40.1198 22.1871 39.7953 22.2333L38.7121 22.387C38.2723 22.4498 37.9658 22.8559 38.0262 23.2961C38.0266 23.2973 38.0403 23.402 38.0407 23.4037C38.0407 30.5233 32.2482 36.3158 25.1285 36.3158C18.0088 36.3158 12.2163 30.5233 12.2163 23.4037C12.2163 16.284 18.0088 10.4915 25.1285 10.4915C25.5734 10.4915 25.9355 10.8536 25.9355 11.2985C25.9355 11.7433 25.5734 12.1055 25.1285 12.1055C18.8986 12.1055 13.8303 17.1737 13.8303 23.4037C13.8303 29.6336 18.8986 34.7018 25.1285 34.7018C31.2138 34.7018 36.2766 29.7486 36.4142 23.6605C36.4196 23.4236 36.3207 23.1962 36.1434 23.0391C35.9665 22.8815 35.7276 22.8105 35.494 22.8432L34.1684 23.0316C33.8456 23.078 33.5265 22.9257 33.3594 22.6422C33.1928 22.3612 33.2123 22.0101 33.4099 21.7477L35.8246 18.5349C35.9544 18.3624 36.143 18.2509 36.3563 18.2204C36.5705 18.1902 36.7822 18.2444 36.9549 18.3746L40.1676 20.7889C40.3647 20.937 40.4817 21.1632 40.4892 21.4083C40.4908 21.4854 40.4825 21.5614 40.4633 21.6355Z" fill="black"/>
</svg>
