<svg width="18" height="16" viewBox="0 0 18 16" fill="none" xmlns="http://www.w3.org/2000/svg">
<path d="M16.4306 5.66002C16.1024 5.61235 15.7892 5.49124 15.5142 5.30572C15.2393 5.1202 15.0098 4.87504 14.8427 4.58851C14.6757 4.30198 14.5754 3.98146 14.5494 3.65081C14.5234 3.32015 14.5723 2.9879 14.6925 2.67877C14.7689 2.47668 14.7802 2.25574 14.7247 2.04693C14.6692 1.83812 14.5498 1.65191 14.3831 1.5144C13.6474 0.896585 12.81 0.411248 11.9081 0.080024C11.7028 0.00373936 11.4786 -0.00579183 11.2675 0.0527882C11.0564 0.111368 10.8692 0.235071 10.7325 0.406274C10.5268 0.669329 10.2639 0.882085 9.96369 1.02841C9.66351 1.17473 9.33396 1.25077 9.00001 1.25077C8.66607 1.25077 8.33651 1.17473 8.03633 1.02841C7.73615 0.882085 7.47323 0.669329 7.26751 0.406274C7.13084 0.235071 6.94362 0.111368 6.73253 0.0527882C6.52144 -0.00579183 6.29724 0.00373936 6.09189 0.080024C5.2592 0.385823 4.48066 0.822566 3.78564 1.37377C3.61044 1.51247 3.48425 1.70361 3.42555 1.9192C3.36684 2.1348 3.3787 2.36353 3.45939 2.5719C3.58919 2.8892 3.64282 3.2325 3.61597 3.57427C3.58913 3.91604 3.48256 4.24677 3.30481 4.53991C3.12707 4.83305 2.88309 5.08046 2.59246 5.26228C2.30183 5.44411 1.97262 5.55528 1.63126 5.5869C1.40964 5.6106 1.20148 5.70482 1.03744 5.8557C0.87339 6.00659 0.762121 6.20615 0.720012 6.42502C0.615273 6.94348 0.562512 7.47109 0.562512 8.00002C0.561742 8.44284 0.597488 8.88496 0.669387 9.3219C0.705171 9.54778 0.81437 9.75559 0.980101 9.91318C1.14583 10.0708 1.35887 10.1694 1.58626 10.1938C1.93512 10.2265 2.27106 10.3423 2.56597 10.5316C2.86088 10.7208 3.10617 10.9779 3.28132 11.2814C3.45646 11.5848 3.55637 11.9259 3.57267 12.2759C3.58897 12.6259 3.52119 12.9747 3.37501 13.2931C3.27935 13.5003 3.25562 13.7334 3.30759 13.9556C3.35956 14.1778 3.48426 14.3762 3.66189 14.5194C4.3932 15.126 5.22258 15.6035 6.11439 15.9313C6.22843 15.9708 6.34808 15.9917 6.46876 15.9931C6.63423 15.9928 6.79721 15.9528 6.94401 15.8764C7.09082 15.8001 7.21719 15.6897 7.31251 15.5544C7.513 15.2623 7.78174 15.0235 8.09542 14.8589C8.4091 14.6942 8.75823 14.6086 9.11251 14.6094C9.45578 14.6098 9.7942 14.6904 10.1008 14.8447C10.4075 14.999 10.6739 15.2228 10.8788 15.4981C11.0151 15.6814 11.2081 15.8144 11.4279 15.8764C11.6476 15.9385 11.8818 15.9261 12.0938 15.8413C12.9092 15.5131 13.6684 15.0595 14.3438 14.4969C14.5134 14.3566 14.6342 14.1662 14.6888 13.9529C14.7434 13.7396 14.7289 13.5146 14.6475 13.31C14.5152 12.9968 14.4575 12.6571 14.479 12.3178C14.5005 11.9785 14.6005 11.6488 14.7713 11.3548C14.942 11.0607 15.1788 10.8104 15.4629 10.6236C15.7469 10.4367 16.0705 10.3185 16.4081 10.2781C16.6271 10.2479 16.8306 10.1487 16.9894 9.99497C17.1482 9.84125 17.2539 9.64097 17.2913 9.42315C17.3816 8.95397 17.4305 8.47777 17.4375 8.00002C17.4376 7.49611 17.3905 6.99329 17.2969 6.49815C17.2589 6.28513 17.1548 6.0895 16.9993 5.93904C16.8438 5.78858 16.6448 5.69095 16.4306 5.66002ZM11.8125 8.00002C11.8125 8.55628 11.6476 9.10005 11.3385 9.56257C11.0295 10.0251 10.5902 10.3856 10.0763 10.5984C9.56239 10.8113 8.99689 10.867 8.45132 10.7585C7.90575 10.65 7.40461 10.3821 7.01127 9.98876C6.61794 9.59543 6.35007 9.09429 6.24155 8.54872C6.13303 8.00314 6.18873 7.43764 6.4016 6.92373C6.61447 6.40981 6.97496 5.97056 7.43747 5.66152C7.89998 5.35247 8.44375 5.18752 9.00001 5.18752C9.74593 5.18752 10.4613 5.48384 10.9887 6.01129C11.5162 6.53873 11.8125 7.2541 11.8125 8.00002Z" fill="#666666"/>
</svg>
