<svg width="46" height="46" viewBox="0 0 46 46" fill="none" xmlns="http://www.w3.org/2000/svg">
<path d="M30.4121 5.76372C30.1289 5.92973 29.7773 5.83208 29.6113 5.54887C29.4453 5.26567 29.543 4.91411 29.8262 4.74809L31.0664 4.02543C31.3496 3.86918 31.7012 3.95708 31.8672 4.24028C32.0234 4.52348 31.9355 4.87504 31.6523 5.04106L30.4121 5.76372ZM28.0976 3.00004C28 3.31254 27.6777 3.47856 27.3652 3.3809C27.0527 3.28325 26.8867 2.96098 26.9844 2.64848L27.3457 1.5059C27.4433 1.1934 27.7656 1.02739 28.0781 1.12504C28.3906 1.2227 28.5566 1.54497 28.459 1.85747L28.0976 3.00004ZM30.8027 9.27934C30.4902 9.21098 30.2949 8.89848 30.3633 8.57622C30.4316 8.26372 30.7441 8.0684 31.0566 8.13676L32.2285 8.40044C32.541 8.46879 32.7363 8.78129 32.668 9.09379C32.5996 9.40629 32.2871 9.60161 31.9746 9.53325L30.8027 9.27934ZM24.582 4.67973C25.2265 4.47465 25.9004 4.48442 26.5156 4.66997C28.9961 5.42192 29.7285 8.60551 27.8437 10.334L29.8945 13.879C30.1191 14.2696 29.8359 14.7872 29.3476 14.7579L21.7598 14.504L21.164 14.8457L21.4082 15.2754H44.9726C45.4902 15.2754 45.7539 15.9102 45.3828 16.2813L39.5625 22.0332C39.4551 22.1504 39.2988 22.2286 39.123 22.2286H6.88671C6.74022 22.2286 6.59374 22.17 6.47655 22.0625L0.656237 16.3106C0.22655 15.9102 0.519518 15.2754 1.0371 15.2754H15.5586C15.5488 15.2559 15.539 15.2364 15.5293 15.2168L14.0644 12.6875C13.3711 11.4961 13.7812 9.96294 14.9824 9.26958L17.8047 7.63872L21.3984 0.919965C21.6133 0.519575 22.1894 0.500044 22.4238 0.919965L24.582 4.67973ZM26.5937 10.5C26.584 10.4903 26.584 10.4805 26.584 10.4707L25.1484 7.98051L21.9258 2.39457L18.8984 8.05864L21.9551 13.3516L28.3613 13.5664L26.5937 10.5ZM26.1836 5.79301C25.8613 5.69536 25.5293 5.67582 25.1973 5.73442L26.1543 7.39458L27.248 9.28911C28.2344 8.10747 27.6875 6.252 26.1836 5.79301ZM20.1484 15.4415L19.1523 16.0176L20.7344 18.752C20.8906 19.0254 21.2519 19.1133 21.5156 18.9668L22.0137 18.6836L20.1484 15.4415ZM18.0586 16.4473C17.8242 16.4864 17.5898 16.4864 17.3555 16.4571H2.45311L7.12108 21.0665H38.8789L43.5469 16.4571H22.082L23.3222 18.6055C23.4785 18.879 23.3906 19.2403 23.1074 19.3965L22.1015 19.9825C21.2519 20.4707 20.1582 20.1582 19.709 19.3086L18.0586 16.4473ZM18.0098 8.86919L15.5586 10.2852C14.9238 10.6563 14.6992 11.4961 15.0703 12.1114L16.5351 14.6407C16.9062 15.2754 17.7461 15.5 18.3613 15.1289L20.8223 13.7129L18.0098 8.86919ZM28.2246 32.0918H17.7754L19.6211 36.0958H26.3887L28.2246 32.0918ZM16.8672 30.92H29.1426C29.5625 30.92 29.8555 31.3594 29.6699 31.75L27.3066 36.8868C27.2187 37.1114 27.0039 37.2676 26.7598 37.2676H19.25C19.0254 37.2676 18.8203 37.1407 18.7226 36.9258L16.3496 31.7891C16.125 31.3497 16.4473 30.92 16.8672 30.92ZM31.2715 28.5762L35.3242 24.5723H10.6758L14.7285 28.5762H31.2715ZM34.3965 27.1309L31.9551 29.543C31.8476 29.6602 31.6914 29.7383 31.5156 29.7383H14.4941C14.3476 29.7383 14.2012 29.6797 14.084 29.5723L8.87889 24.4258C8.44921 24.0254 8.75194 23.3907 9.25975 23.3907H36.7597C37.2773 23.3907 37.541 24.0254 37.1699 24.3868L34.3965 27.1309ZM19.8359 39.6016V41.4668L26.1738 43.9375V39.6016H19.8359ZM18.664 41.8672V39.0157C18.664 38.6934 18.9277 38.4297 19.25 38.4297H26.7598C27.082 38.4297 27.3457 38.6934 27.3457 39.0157V44.7969C27.3457 45.1973 26.9355 45.4903 26.5449 45.3438L19.0644 42.4336C18.8301 42.3555 18.664 42.1309 18.664 41.8672Z" fill="black"/>
</svg>
