<svg width="50" height="50" viewBox="0 0 50 50" fill="none" xmlns="http://www.w3.org/2000/svg">
<path d="M1.5625 49.2188H14.8438C15.275 49.2191 15.6247 48.8697 15.625 48.4384C15.625 48.4381 15.625 48.4378 15.625 48.4375V30.4688C15.625 30.2355 15.5206 30.0143 15.3404 29.8661L8.6998 24.3973C8.41143 24.1592 7.99482 24.1592 7.70645 24.3973L1.06582 29.8661C0.885645 30.0143 0.78125 30.2355 0.78125 30.4688V48.4375C0.780957 48.8688 1.13037 49.2185 1.56162 49.2188H1.5625ZM2.34375 30.8373L8.20312 26.0125L14.0625 30.8373V47.6563H2.34375V30.8373Z" fill="black"/>
<path d="M8.20312 29.6875C6.69297 29.6875 5.46875 30.9117 5.46875 32.4219C5.46875 33.932 6.69297 35.1562 8.20312 35.1562C9.71328 35.1562 10.9375 33.932 10.9375 32.4219C10.9356 30.9125 9.7125 29.6894 8.20312 29.6875ZM8.20312 33.5938C7.55596 33.5938 7.03125 33.069 7.03125 32.4219C7.03125 31.7747 7.55596 31.25 8.20312 31.25C8.85029 31.25 9.375 31.7747 9.375 32.4219C9.37432 33.0688 8.85 33.5931 8.20312 33.5938Z" fill="black"/>
<path d="M45.5811 27.2857C45.2939 27.0977 44.9972 26.9246 44.6922 26.767V26.0109C44.6922 25.6573 44.4547 25.3478 44.1131 25.2563C43.4541 25.085 42.776 24.9992 42.0951 25.0008C41.4757 25.0106 40.8598 25.0975 40.2618 25.2593C39.9201 25.3507 39.6825 25.6602 39.6827 26.0139L39.6751 26.7944C39.3684 26.9337 39.0737 27.098 38.794 27.2857L38.7161 27.2735L38.0409 26.8967C37.742 26.7307 37.3699 26.7776 37.1216 27.0127C36.1884 27.8971 35.5175 29.022 35.1829 30.2635C35.0904 30.6092 35.2444 30.9734 35.5568 31.1478L36.2594 31.5407C36.2442 31.7055 36.2365 31.869 36.2365 32.0312C36.2365 32.1937 36.2442 32.3572 36.2594 32.5218L35.5568 32.9146C35.2448 33.089 35.0908 33.4528 35.1829 33.7981C35.5155 35.0404 36.1851 36.1666 37.1177 37.052C37.3659 37.2872 37.7381 37.3342 38.037 37.168L38.716 36.7888L38.7939 36.7766C39.081 36.9648 39.3777 37.138 39.6827 37.2954V38.0514C39.6827 38.4051 39.9202 38.7145 40.2618 38.806C40.8885 38.9751 41.5346 39.0613 42.1837 39.0624C42.2157 39.0624 42.2478 39.0616 42.2791 39.0616C42.8988 39.0517 43.515 38.9649 44.1132 38.803C44.4549 38.7117 44.6925 38.4021 44.6923 38.0484L44.6985 37.2679C45.0058 37.1288 45.301 36.9644 45.5812 36.7766L45.659 36.7888L46.3342 37.1657C46.6329 37.3329 47.0057 37.2858 47.2535 37.0497C48.1867 36.1652 48.8576 35.0403 49.1922 33.7988C49.2848 33.4532 49.1308 33.0889 48.8184 32.9145L48.1157 32.5217C48.131 32.3568 48.1386 32.1933 48.1386 32.0311C48.1386 31.8686 48.131 31.7051 48.1157 31.5406L48.8184 31.1477C49.1303 30.9733 49.2842 30.6095 49.1922 30.2642C48.8593 29.0219 48.1894 27.8958 47.2567 27.0103C47.008 26.7752 46.6358 26.7283 46.3365 26.8943L45.6583 27.2735C45.6467 27.2777 45.6346 27.2856 45.6172 27.2879C45.6046 27.2894 45.5906 27.2861 45.5811 27.2857ZM46.4996 31.266C46.6014 31.7711 46.6014 32.2914 46.4996 32.7965C46.437 33.127 46.5928 33.4607 46.8864 33.625L47.4952 33.9652C47.2739 34.5271 46.96 35.048 46.5667 35.5063L46.421 35.4247C45.8851 35.1218 45.2251 35.143 44.7098 35.4796C44.5019 35.6191 44.2826 35.7411 44.0544 35.8442C43.4887 36.1052 43.1274 36.6723 43.1297 37.2953V37.4196C42.8421 37.4688 42.551 37.4954 42.2592 37.4989C41.9196 37.5056 41.58 37.4799 41.2452 37.4218V37.2952C41.2481 36.672 40.8865 36.1048 40.3205 35.8441C40.093 35.7418 39.8745 35.6203 39.6674 35.4809C39.1521 35.1428 38.491 35.121 37.9546 35.4245L37.8051 35.5084C37.4125 35.0493 37.0996 34.5275 36.8796 33.9649L37.4884 33.6247C37.7821 33.4604 37.9378 33.1267 37.8752 32.7962C37.7735 32.2911 37.7735 31.7708 37.8752 31.2657C37.9378 30.9351 37.7821 30.6015 37.4884 30.4372L36.8796 30.0969C37.101 29.535 37.4149 29.0141 37.8081 28.5558L37.9538 28.6375C38.4896 28.9407 39.1498 28.9195 39.6651 28.5826C39.8727 28.4428 40.0916 28.3209 40.3196 28.2179C40.8861 27.9576 41.248 27.3902 41.2451 26.7668V26.6425C41.5325 26.5932 41.8234 26.5668 42.1149 26.5632C42.4548 26.5566 42.7946 26.5824 43.1296 26.6402V26.7669C43.1272 27.3899 43.4886 27.957 44.0543 28.2179C44.2818 28.3207 44.5001 28.4422 44.7074 28.5811C45.223 28.9193 45.8843 28.9411 46.421 28.6376L46.5697 28.5544C46.9625 29.0131 47.2753 29.5345 47.4952 30.097L46.8864 30.4373C46.5928 30.6017 46.437 30.9353 46.4996 31.266Z" fill="black"/>
<path d="M42.1875 28.9062C40.4616 28.9062 39.0625 30.3054 39.0625 32.0312C39.0625 33.7571 40.4616 35.1562 42.1875 35.1562C43.9134 35.1562 45.3125 33.7571 45.3125 32.0312C45.3107 30.3061 43.9127 28.908 42.1875 28.9062ZM42.1875 33.5938C41.3245 33.5938 40.625 32.8942 40.625 32.0312C40.625 31.1683 41.3245 30.4688 42.1875 30.4688C43.0505 30.4688 43.75 31.1683 43.75 32.0312C43.7489 32.8937 43.05 33.5927 42.1875 33.5938Z" fill="black"/>
<path d="M18.75 2.34375V30.4688C18.7511 31.3312 19.45 32.0302 20.3125 32.0312H34.375V30.4688H20.3125V2.34375H41.4062V24.2188H42.9688V2.34375C42.9677 1.48125 42.2687 0.782324 41.4062 0.78125H20.3125C19.45 0.782324 18.7511 1.48125 18.75 2.34375Z" fill="black"/>
<path d="M26.5625 6.25C26.5628 5.81875 26.2134 5.46904 25.7821 5.46875C25.7818 5.46875 25.7815 5.46875 25.7812 5.46875H22.6563C22.225 5.46846 21.8753 5.81787 21.875 6.24912V6.25V9.375C21.8747 9.80625 22.2241 10.156 22.6554 10.1562H22.6563H25.7812C26.2125 10.1565 26.5622 9.80713 26.5625 9.37588C26.5625 9.37559 26.5625 9.37529 26.5625 9.375V6.25ZM25 8.59375H23.4375V7.03125H25V8.59375Z" fill="black"/>
<path d="M26.5625 14.8438C26.5628 14.4125 26.2134 14.0628 25.7821 14.0625C25.7818 14.0625 25.7815 14.0625 25.7812 14.0625H22.6563C22.225 14.0622 21.8753 14.4116 21.875 14.8429V14.8438V17.9688C21.8747 18.4 22.2241 18.7497 22.6554 18.75H22.6563H25.7812C26.2125 18.7503 26.5622 18.4009 26.5625 17.9696C26.5625 17.9693 26.5625 17.969 26.5625 17.9688V14.8438ZM25 17.1875H23.4375V15.625H25V17.1875Z" fill="black"/>
<path d="M25.7812 22.6563H22.6563C22.225 22.656 21.8753 23.0054 21.875 23.4366V23.4375V26.5625C21.8747 26.9937 22.2241 27.3435 22.6554 27.3438H22.6563H25.7812C26.2125 27.344 26.5622 26.9946 26.5625 26.5634C26.5625 26.5631 26.5625 26.5628 26.5625 26.5625V23.4375C26.5628 23.0063 26.2134 22.6565 25.7821 22.6563C25.7818 22.6563 25.7815 22.6563 25.7812 22.6563ZM25 25.7812H23.4375V24.2188H25V25.7812Z" fill="black"/>
<path d="M28.125 7.03125H39.8438V8.59375H28.125V7.03125Z" fill="black"/>
<path d="M28.125 15.625H39.8438V17.1875H28.125V15.625Z" fill="black"/>
<path d="M28.125 24.2188H35.9375V25.7812H28.125V24.2188Z" fill="black"/>
<path d="M7.42188 20.3125H8.98438V21.875H7.42188V20.3125Z" fill="black"/>
<path d="M7.42188 17.1875H8.98438V18.75H7.42188V17.1875Z" fill="black"/>
<path d="M7.42188 14.0625H8.98438V15.625H7.42188V14.0625Z" fill="black"/>
<path d="M10.5469 14.0625H12.1094V15.625H10.5469V14.0625Z" fill="black"/>
<path d="M13.6719 14.0625H15.2344V15.625H13.6719V14.0625Z" fill="black"/>
</svg>
