<svg width="18" height="18" viewBox="0 0 18 18" fill="none" xmlns="http://www.w3.org/2000/svg">
<path d="M9.00033 0C4.03141 0 0.000305176 4.02602 0.000305176 8.99527C0.000305176 13.9693 4.03141 18 9.00028 18C13.9719 18 17.9996 13.9692 17.9996 8.99527C17.9996 4.02602 13.9719 0 9.00033 0ZM9.64167 14.0031C9.43264 14.1891 9.19039 14.2826 8.91596 14.2826C8.63204 14.2826 8.38437 14.1908 8.17297 14.0068C7.96123 13.8232 7.85515 13.5661 7.85515 13.2357C7.85515 12.9426 7.95781 12.696 8.16246 12.4961C8.36711 12.2962 8.61816 12.1962 8.91596 12.1962C9.20902 12.1962 9.45569 12.2962 9.65592 12.4961C9.85582 12.696 9.95611 12.9426 9.95611 13.2357C9.95573 13.5613 9.85103 13.8171 9.64167 14.0031ZM12.2481 7.54145C12.0875 7.83926 11.8968 8.09605 11.6755 8.31258C11.4549 8.52907 11.0582 8.89294 10.4856 9.40453C10.3277 9.54887 10.2007 9.67558 10.1055 9.78466C10.0103 9.89411 9.93914 9.99402 9.89271 10.0848C9.84594 10.1756 9.81006 10.2664 9.78463 10.3572C9.75921 10.4477 9.72094 10.6073 9.66909 10.8353C9.58102 11.3191 9.30422 11.561 8.83902 11.561C8.59711 11.561 8.39383 11.482 8.22815 11.3238C8.06314 11.1656 7.98082 10.9308 7.98082 10.6191C7.98082 10.2285 8.04146 9.88999 8.16242 9.60372C8.28271 9.31742 8.44364 9.06638 8.64354 8.84989C8.84377 8.6334 9.11345 8.37656 9.45327 8.07875C9.75108 7.81821 9.96623 7.62172 10.0987 7.48922C10.2315 7.35643 10.343 7.20871 10.4334 7.04607C10.5246 6.8831 10.5693 6.70658 10.5693 6.51585C10.5693 6.14352 10.4314 5.82979 10.1543 5.574C9.8775 5.3182 9.52038 5.19012 9.08298 5.19012C8.57106 5.19012 8.19431 5.3192 7.95239 5.57737C7.71048 5.83554 7.5062 6.21567 7.33848 6.71813C7.17992 7.24397 6.87974 7.50685 6.43826 7.50685C6.17771 7.50685 5.95785 7.41503 5.77862 7.23139C5.59973 7.04774 5.51028 6.84888 5.51028 6.63477C5.51028 6.19295 5.65224 5.74505 5.93584 5.2914C6.21977 4.83775 6.63378 4.462 7.17821 4.16452C7.72231 3.86671 8.35761 3.71762 9.08298 3.71762C9.75754 3.71762 10.3528 3.84229 10.8692 4.09133C11.3855 4.34 11.7846 4.67849 12.0661 5.10671C12.3474 5.53461 12.4883 5.99981 12.4883 6.50227C12.489 6.89702 12.4087 7.24364 12.2481 7.54145Z" fill="#666666"/>
</svg>
