<svg width="18" height="18" viewBox="0 0 18 18" fill="none" xmlns="http://www.w3.org/2000/svg">
<path d="M6.42885 18.0038C7.13938 18.0038 7.71537 17.4278 7.71537 16.7172C7.71537 16.0067 7.13938 15.4307 6.42885 15.4307C5.71833 15.4307 5.14233 16.0067 5.14233 16.7172C5.14233 17.4278 5.71833 18.0038 6.42885 18.0038Z" fill="#666666"/>
<path d="M15.8621 18.0038C16.5726 18.0038 17.1486 17.4278 17.1486 16.7172C17.1486 16.0067 16.5726 15.4307 15.8621 15.4307C15.1516 15.4307 14.5756 16.0067 14.5756 16.7172C14.5756 17.4278 15.1516 18.0038 15.8621 18.0038Z" fill="#666666"/>
<path d="M17.1448 4.9848L16.0609 4.90978C15.8629 6.10544 15.2267 7.18451 14.2764 7.93664C13.3261 8.68878 12.1298 9.06006 10.9206 8.9781C9.71145 8.89615 8.57615 8.36684 7.73602 7.49336C6.8959 6.61987 6.41117 5.46483 6.37634 4.2534L4.5272 4.12587L3.77705 1.44031C3.75289 1.35164 3.70081 1.27311 3.62852 1.21636C3.55623 1.15961 3.46758 1.12766 3.37571 1.12524H0.427599C0.320623 1.13525 0.221234 1.18482 0.148885 1.26426C0.0765368 1.34369 0.036438 1.44727 0.036438 1.55471C0.036438 1.66215 0.0765368 1.76573 0.148885 1.84516C0.221234 1.92459 0.320623 1.97416 0.427599 1.98417H3.05315L5.62618 11.8562C5.36179 11.9672 5.13472 12.1515 4.97186 12.3875C4.809 12.6235 4.71717 12.9012 4.70724 13.1878C4.70871 13.3713 4.74638 13.5528 4.8181 13.7217C4.88982 13.8907 4.99417 14.0439 5.12518 14.1724C5.25619 14.301 5.41128 14.4025 5.58157 14.471C5.75185 14.5395 5.93399 14.5738 6.11753 14.5718H17.1448C17.2582 14.5718 17.367 14.5267 17.4472 14.4466C17.5274 14.3664 17.5724 14.2576 17.5724 14.1442C17.5724 14.0308 17.5274 13.922 17.4472 13.8419C17.367 13.7617 17.2582 13.7166 17.1448 13.7166H6.05377C5.93774 13.7177 5.82533 13.6763 5.73762 13.6004C5.64991 13.5244 5.59295 13.419 5.57742 13.304C5.56153 13.1542 5.59859 13.0035 5.68217 12.8781C5.76576 12.7528 5.89059 12.6606 6.03502 12.6176L6.17379 12.5764L17.2536 11.6537C17.4611 11.628 17.652 11.5272 17.7902 11.3703C17.9285 11.2134 18.0044 11.0113 18.0038 10.8023V5.83998C18.0038 5.72736 17.9815 5.61584 17.9383 5.51184C17.8951 5.40784 17.8318 5.3134 17.752 5.23394C17.6721 5.15448 17.5774 5.09157 17.4732 5.04881C17.3691 5.00606 17.2574 4.9843 17.1448 4.9848Z" fill="#666666"/>
<path d="M11.2523 0C10.4363 0 9.63862 0.241977 8.96012 0.695333C8.28163 1.14869 7.75281 1.79306 7.44053 2.54696C7.12825 3.30086 7.04655 4.13044 7.20574 4.93077C7.36494 5.73111 7.75789 6.46627 8.3349 7.04328C8.91191 7.62029 9.64707 8.01324 10.4474 8.17244C11.2477 8.33164 12.0773 8.24993 12.8312 7.93766C13.5851 7.62538 14.2295 7.09656 14.6829 6.41806C15.1362 5.73957 15.3782 4.94188 15.3782 4.12586C15.3782 3.03161 14.9435 1.98218 14.1697 1.20844C13.396 0.434688 12.3466 0 11.2523 0ZM13.364 3.29319L10.7685 5.89248C10.7336 5.92763 10.6921 5.95554 10.6464 5.97458C10.6007 5.99362 10.5517 6.00343 10.5022 6.00343C10.4527 6.00343 10.4036 5.99362 10.3579 5.97458C10.3122 5.95554 10.2707 5.92763 10.2359 5.89248L9.11063 4.76724C9.04 4.69661 9.00032 4.60082 9.00032 4.50094C9.00032 4.40105 9.04 4.30526 9.11063 4.23463C9.18126 4.164 9.27705 4.12433 9.37694 4.12433C9.47682 4.12433 9.57261 4.164 9.64324 4.23463L10.5022 5.09731L12.8352 2.76433C12.9069 2.70288 12.9992 2.67077 13.0936 2.67442C13.188 2.67806 13.2775 2.71719 13.3443 2.78399C13.4111 2.85079 13.4503 2.94034 13.4539 3.03474C13.4576 3.12914 13.4255 3.22143 13.364 3.29319Z" fill="#666666"/>
</svg>
